<?xml version="1.0" encoding="UTF-8" standalone="no"?>
<svg xmlns:xlink="http://www.w3.org/1999/xlink" height="33.9px" width="81.35px" xmlns="http://www.w3.org/2000/svg">
  <g transform="matrix(1.0, 0.0, 0.0, 1.0, 0.0, 0.0)">
    <path d="M66.25 16.95 L60.05 16.95 60.05 21.95 66.25 21.95 66.25 24.8 60.05 24.8 60.05 30.25 67.15 30.25 67.15 33.2 56.5 33.2 56.5 13.95 67.25 13.95 66.25 16.95 M79.0 17.5 Q77.45 16.75 76.2 16.75 74.65 16.75 73.95 17.2 73.15 17.75 73.15 18.95 73.15 20.0 75.15 21.35 L77.6 22.7 Q79.15 23.65 79.75 24.25 81.35 25.9 81.35 28.1 81.35 30.5 79.2 32.1 77.4 33.45 75.4 33.45 71.4 33.45 68.8 31.65 L70.15 29.2 71.6 29.95 Q73.25 30.65 74.45 30.65 75.95 30.65 76.8 30.1 77.7 29.45 77.7 28.3 77.7 27.2 76.65 26.4 76.35 26.15 74.05 24.8 L71.05 22.9 Q69.6 21.5 69.6 18.95 69.6 16.3 71.9 14.95 73.7 13.9 76.3 13.9 L79.15 14.4 80.35 14.95 80.35 18.2 79.0 17.5 M47.65 13.95 L55.3 33.2 51.65 33.2 49.7 28.3 42.9 28.3 41.05 33.2 37.6 33.2 45.1 13.95 47.65 13.95 M46.3 18.75 L43.85 25.65 48.7 25.65 46.4 18.75 46.3 18.75 M19.85 14.2 Q18.0 16.3 18.0 18.3 18.0 21.0 20.5 22.7 22.6 24.15 24.65 24.15 27.0 24.15 29.45 22.75 32.75 20.95 33.75 17.55 34.35 15.45 34.2 13.35 L34.65 17.3 Q34.65 23.1 31.2 27.75 29.25 30.3 26.7 31.95 24.75 33.2 22.4 33.9 24.45 32.55 24.45 30.25 24.45 28.65 21.0 26.3 L19.85 25.45 Q17.25 23.5 16.85 21.75 16.3 19.45 17.65 17.0 18.4 15.6 19.7 14.35 L19.85 14.2" fill="#0e233f" fill-rule="evenodd" stroke="none"/>
    <path d="M19.85 14.2 L23.55 11.45 Q26.3 9.0 26.3 6.55 26.3 4.7 25.2 3.05 L23.15 1.0 Q27.3 2.45 30.25 5.75 33.2 9.1 34.2 13.35 34.35 15.45 33.75 17.55 32.75 20.95 29.45 22.75 27.0 24.15 24.65 24.15 22.6 24.15 20.5 22.7 18.0 21.0 18.0 18.3 18.0 16.3 19.85 14.2" fill="#325c9f" fill-rule="evenodd" stroke="none"/>
    <path d="M2.4 26.15 Q0.5 20.75 2.3 16.8 5.1 10.5 13.5 9.2 L16.85 8.8 20.4 8.25 Q24.45 7.2 24.9 4.3 L24.9 4.75 Q24.7 7.7 22.3 9.15 20.2 10.4 13.25 12.05 7.45 13.4 5.65 18.2 4.7 20.6 4.95 22.7 4.95 26.65 7.7 30.0 9.5 32.2 12.25 33.9 9.15 32.95 6.6 30.9 4.05 28.9 2.4 26.15" fill="#3b4e1c" fill-rule="evenodd" stroke="none"/>
    <path d="M2.4 26.15 Q0.0 22.05 0.0 17.3 0.0 10.15 5.1 5.05 10.15 0.0 17.35 0.0 L21.05 0.4 Q22.65 0.85 23.7 1.85 24.8 2.9 24.9 4.3 24.45 7.2 20.4 8.25 L16.85 8.8 13.5 9.2 Q5.1 10.5 2.3 16.8 0.5 20.75 2.4 26.15" fill="#71c53d" fill-rule="evenodd" stroke="none"/>
  </g>
</svg>
