<?xml version="1.0" encoding="UTF-8" standalone="no"?>
<svg xmlns:xlink="http://www.w3.org/1999/xlink" height="29.35px" width="81.95px" xmlns="http://www.w3.org/2000/svg">
  <g transform="matrix(1.0, 0.0, 0.0, 1.0, 0.0, 0.0)">
    <path d="M81.95 24.3 L81.2 29.25 80.5 29.25 80.55 28.9 80.2 29.25 80.15 29.25 79.75 29.35 Q79.35 29.35 79.1 28.95 78.8 28.65 78.8 27.85 78.8 26.9 79.2 26.3 79.55 25.6 80.15 25.6 80.7 25.6 80.95 26.15 L81.25 24.3 81.95 24.3 M63.75 4.6 L64.45 0.75 50.7 0.75 46.9 21.65 61.35 21.65 62.0 18.0 62.05 17.8 51.65 17.8 52.65 12.65 61.9 12.65 62.0 12.45 62.65 8.8 53.35 8.8 54.15 4.6 63.75 4.6 M63.35 4.4 L53.8 4.4 52.9 9.05 62.15 9.05 61.55 12.5 52.3 12.5 51.15 18.05 61.55 18.05 60.95 21.45 46.95 21.45 50.7 1.0 64.0 1.0 63.35 4.4 M64.1 5.0 L54.5 5.0 53.9 8.35 63.15 8.35 62.3 13.1 53.0 13.1 52.15 17.35 62.55 17.35 61.7 22.05 46.35 22.05 47.95 13.4 39.25 13.4 37.65 22.1 32.65 22.1 33.9 15.25 32.6 18.1 Q31.75 19.45 30.55 20.45 29.35 21.45 28.0 21.95 L25.0 22.45 Q23.25 22.45 21.8 21.8 L21.4 21.6 19.35 19.95 18.85 19.25 18.65 18.95 Q18.15 18.05 17.85 16.95 17.35 15.1 17.35 12.95 17.35 11.3 17.7 9.5 17.9 8.3 18.4 7.0 L18.65 6.3 Q19.4 4.65 20.2 3.65 21.05 2.5 22.3 1.65 L23.7 0.8 Q24.65 0.35 25.65 0.2 L27.5 0.0 29.6 0.25 30.35 0.45 Q31.6 0.95 32.7 1.9 33.65 2.9 34.25 4.25 34.85 5.6 35.0 7.2 L35.1 7.85 30.25 8.35 29.95 6.9 29.6 6.05 29.2 5.55 28.5 5.05 27.45 4.95 26.15 5.15 25.65 5.4 24.95 5.8 24.35 6.4 23.95 7.0 23.05 8.85 22.7 10.05 Q22.3 11.7 22.3 13.15 22.3 14.3 22.55 15.15 22.75 15.95 23.2 16.5 L23.2 16.55 23.75 17.05 Q24.35 17.6 25.25 17.6 L26.4 17.4 27.45 16.7 28.0 16.15 29.05 13.9 29.2 13.3 34.1 14.15 36.65 0.35 50.35 0.35 50.35 0.3 65.0 0.3 64.1 5.0 M68.35 24.3 L68.2 25.2 67.5 25.2 67.65 24.3 68.35 24.3 M75.9 24.3 L75.15 29.25 74.4 29.25 74.5 28.9 74.1 29.25 73.7 29.35 73.0 28.95 Q72.75 28.65 72.75 27.85 72.75 26.9 73.1 26.3 73.5 25.6 74.1 25.6 74.6 25.6 74.9 26.15 L75.2 24.3 75.9 24.3 M72.7 24.3 L72.55 25.2 71.85 25.2 71.95 24.3 72.7 24.3 M49.35 4.6 L49.4 4.4 50.05 0.75 37.05 0.75 33.2 21.65 37.35 21.65 38.95 12.95 47.6 12.95 48.35 9.05 39.65 9.05 40.45 4.6 49.35 4.6 M49.5 5.1 L40.8 5.1 40.15 8.65 48.85 8.65 49.5 5.1 M49.15 4.4 L40.3 4.4 39.35 9.3 48.1 9.3 47.45 12.7 38.75 12.7 37.15 21.4 33.45 21.4 37.2 0.95 49.75 0.95 49.15 4.4 M48.15 24.3 L47.35 29.25 46.7 29.25 46.75 28.9 46.35 29.25 46.3 29.25 45.9 29.35 Q45.5 29.35 45.2 28.95 L45.0 27.85 Q45.0 26.95 45.35 26.3 45.75 25.6 46.3 25.6 46.85 25.6 47.1 26.15 L47.4 24.3 48.15 24.3 M43.5 24.3 L42.65 29.25 41.95 29.25 42.7 24.3 43.5 24.3 M57.35 24.3 L56.55 29.25 55.85 29.25 56.6 24.3 57.35 24.3 M55.9 24.3 L55.8 25.15 53.85 25.15 53.65 26.3 55.55 26.3 55.45 27.1 53.5 27.1 53.3 28.4 55.45 28.4 55.3 29.25 52.4 29.25 53.2 24.3 55.9 24.3 M58.9 25.6 Q59.35 25.6 59.65 26.0 60.0 26.45 60.0 27.15 L59.95 27.75 58.05 27.75 58.05 27.85 58.25 28.4 58.6 28.65 58.75 28.65 59.15 28.15 59.85 28.3 59.35 29.1 58.75 29.35 58.6 29.35 Q58.05 29.35 57.75 28.9 57.4 28.5 57.4 27.7 57.4 26.8 57.8 26.2 58.05 25.65 58.75 25.6 L58.9 25.6 M59.3 27.1 L59.15 26.5 58.8 26.3 58.75 26.3 58.4 26.5 58.15 27.2 59.3 27.2 59.3 27.1 M60.5 26.65 Q60.7 26.15 61.05 25.85 61.45 25.6 61.85 25.6 62.3 25.6 62.6 25.9 L62.9 26.8 62.2 26.9 Q62.2 26.35 61.8 26.35 L61.45 26.45 61.15 27.05 Q61.0 27.4 61.0 27.95 L61.1 28.4 61.45 28.6 61.75 28.4 62.05 27.9 62.7 28.05 Q62.55 28.75 62.2 29.05 L61.45 29.35 Q60.95 29.35 60.6 28.95 60.3 28.55 60.3 27.8 L60.5 26.65 M50.7 27.75 L48.85 27.75 48.85 27.85 49.0 28.4 49.35 28.65 49.5 28.65 49.95 28.15 50.6 28.3 50.1 29.1 49.5 29.35 49.35 29.35 Q48.85 29.35 48.5 28.9 48.15 28.5 48.15 27.7 48.15 26.8 48.55 26.2 48.85 25.65 49.5 25.6 L49.65 25.6 Q50.15 25.6 50.45 26.0 L50.75 27.15 50.7 27.75 M48.9 27.2 L50.05 27.2 50.05 27.1 49.95 26.5 49.55 26.3 49.5 26.3 Q49.25 26.35 49.15 26.5 L48.9 27.2 M45.7 27.8 L45.8 28.4 Q45.95 28.65 46.2 28.65 L46.5 28.5 46.8 27.95 46.9 27.2 46.75 26.55 Q46.65 26.35 46.4 26.35 L46.3 26.35 46.1 26.45 45.8 27.0 45.7 27.8 M41.4 25.85 L41.6 26.55 41.6 26.9 41.45 27.85 41.35 28.75 41.4 29.25 40.7 29.25 40.65 28.85 40.3 29.25 39.85 29.35 Q39.55 29.35 39.3 29.05 L39.1 28.3 Q39.1 27.8 39.35 27.45 39.6 27.2 40.2 27.1 L40.3 27.1 40.9 26.95 40.95 26.65 40.85 26.4 40.6 26.3 40.3 26.35 40.1 26.7 39.4 26.6 Q39.55 26.05 39.85 25.85 40.1 25.65 40.3 25.6 L40.6 25.6 41.4 25.85 M40.8 27.6 L40.3 27.7 39.95 27.85 Q39.8 27.95 39.8 28.2 L39.85 28.5 40.1 28.65 40.4 28.55 40.65 28.25 40.8 27.7 40.8 27.6 M80.15 26.35 L79.9 26.45 79.65 27.0 79.55 27.8 Q79.55 28.2 79.7 28.4 L80.0 28.65 80.15 28.6 80.35 28.5 80.65 27.95 80.8 27.2 80.65 26.55 80.25 26.35 80.15 26.35 M78.1 25.85 L78.35 26.55 78.35 26.9 78.2 27.85 78.1 28.75 78.15 29.25 77.45 29.25 77.4 28.85 77.05 29.25 76.6 29.35 76.05 29.05 75.85 28.3 Q75.85 27.75 76.1 27.45 76.35 27.2 76.95 27.1 L77.05 27.1 77.65 26.95 77.7 26.65 77.6 26.4 77.35 26.3 77.05 26.35 Q76.85 26.45 76.85 26.7 L76.15 26.6 Q76.3 26.1 76.55 25.85 L77.05 25.6 77.35 25.6 78.1 25.85 M77.55 27.6 L77.05 27.7 76.7 27.85 76.5 28.2 76.6 28.5 76.85 28.65 77.15 28.55 77.35 28.25 77.5 27.7 77.55 27.6 M73.45 27.8 Q73.45 28.2 73.6 28.4 L73.95 28.65 74.1 28.6 74.3 28.5 74.6 27.95 74.7 27.2 74.55 26.55 74.2 26.35 74.1 26.35 73.85 26.45 73.6 27.0 Q73.45 27.35 73.45 27.8 M72.5 25.65 L71.9 29.25 71.2 29.25 71.75 25.65 72.5 25.65 M68.6 26.65 Q68.8 26.1 69.2 25.85 L69.95 25.6 70.7 25.9 71.0 26.8 70.3 26.9 Q70.3 26.35 69.9 26.35 L69.55 26.45 69.25 27.05 69.15 27.95 69.25 28.4 69.5 28.6 69.85 28.4 70.1 27.9 70.85 28.05 70.3 29.05 69.5 29.35 Q69.05 29.35 68.7 28.95 68.4 28.55 68.4 27.8 L68.6 26.65 M68.15 25.65 L67.6 29.25 66.85 29.25 67.4 25.65 68.15 25.65 M66.6 26.45 L66.25 26.55 65.95 27.05 65.65 28.15 65.5 29.25 64.8 29.25 65.35 25.65 66.05 25.65 65.9 26.35 Q66.25 25.6 66.7 25.6 L67.1 25.7 66.8 26.5 66.6 26.45 M64.9 25.65 L64.8 26.4 64.35 26.4 64.05 28.35 64.1 28.55 64.3 28.6 64.55 28.6 64.4 29.3 64.05 29.35 Q63.65 29.35 63.5 29.15 L63.3 28.6 63.6 26.4 63.25 26.4 63.4 25.65 63.75 25.65 63.8 25.1 64.65 24.4 64.45 25.65 64.9 25.65 M33.85 4.4 Q33.3 3.15 32.4 2.25 L32.4 2.2 Q31.45 1.3 30.25 0.85 L29.6 0.65 27.5 0.4 25.65 0.6 23.85 1.2 22.6 1.95 Q21.0 3.05 19.85 4.95 L19.45 5.7 19.05 6.45 18.85 7.0 18.65 7.55 Q18.3 8.5 18.1 9.55 17.8 11.2 17.8 12.95 17.8 15.15 18.25 16.8 L18.65 17.85 19.45 19.25 19.75 19.65 Q20.5 20.6 21.6 21.2 L22.0 21.4 Q23.35 22.0 25.0 22.0 L27.85 21.5 Q29.15 21.05 30.25 20.1 L32.2 17.85 33.6 14.75 33.7 14.5 29.6 13.85 29.5 13.8 29.45 13.95 Q29.1 15.45 28.35 16.35 L28.1 16.7 27.75 17.0 26.55 17.8 25.25 18.0 Q24.2 18.0 23.45 17.35 L23.15 17.1 22.85 16.75 Q22.35 16.15 22.15 15.2 21.85 14.35 21.85 13.1 21.85 11.5 22.3 9.9 L22.65 8.65 23.45 7.0 24.05 6.15 24.7 5.45 25.65 4.85 26.05 4.7 27.45 4.45 28.65 4.65 29.5 5.2 29.6 5.3 Q30.1 5.85 30.4 6.75 L30.6 7.85 34.6 7.4 34.6 7.2 Q34.4 5.6 33.85 4.4 M30.8 7.65 Q30.55 5.85 29.7 5.05 L29.6 4.95 Q28.75 4.25 27.45 4.25 L25.65 4.65 24.55 5.3 23.15 7.0 22.45 8.6 Q21.65 10.85 21.65 13.1 21.65 15.55 22.7 16.9 23.7 18.25 25.25 18.25 26.75 18.25 27.9 17.15 29.05 16.25 29.6 14.4 L29.7 14.05 33.45 14.65 Q32.25 18.2 30.15 19.95 28.0 21.75 25.0 21.75 21.75 21.75 19.9 19.5 L19.7 19.25 Q19.05 18.4 18.65 17.3 18.0 15.45 18.0 12.95 18.0 10.45 18.65 8.25 L19.1 7.0 19.25 6.55 Q20.5 3.65 22.7 2.15 24.1 1.15 25.65 0.8 L27.5 0.6 29.6 0.9 Q31.1 1.3 32.25 2.35 34.05 4.15 34.35 7.25 L30.8 7.65 M28.3 24.3 L28.15 25.15 26.3 25.15 26.1 26.35 27.9 26.35 27.8 27.15 26.0 27.15 25.65 29.25 24.9 29.25 25.65 24.3 28.3 24.3 M34.25 24.3 L33.45 29.25 32.75 29.25 32.85 28.9 32.45 29.25 32.4 29.25 32.0 29.35 Q31.6 29.35 31.35 28.95 31.05 28.65 31.05 27.85 31.05 26.95 31.45 26.3 31.85 25.6 32.4 25.6 32.95 25.6 33.2 26.15 L33.5 24.3 34.25 24.3 M2.95 24.65 Q3.3 25.0 3.4 25.85 L2.65 25.9 2.4 25.3 1.95 25.1 Q1.7 25.1 1.4 25.35 1.15 25.5 0.95 26.1 L0.75 27.25 0.95 28.2 1.5 28.5 2.05 28.25 2.4 27.5 3.2 27.65 Q2.95 28.5 2.5 28.9 2.05 29.35 1.45 29.35 0.8 29.35 0.4 28.8 0.0 28.25 0.0 27.2 L0.25 25.6 Q0.55 24.95 1.0 24.55 1.4 24.25 1.95 24.25 2.55 24.25 2.95 24.65 M12.8 24.3 L12.65 25.2 11.95 25.2 12.05 24.3 12.8 24.3 M19.65 24.2 L18.85 25.25 18.35 25.25 18.9 24.2 19.65 24.2 M17.15 24.3 L17.0 25.2 16.25 25.2 16.45 24.3 17.15 24.3 M18.75 25.6 Q19.3 25.6 19.6 26.0 20.0 26.4 20.0 27.2 20.0 28.15 19.55 28.75 19.2 29.3 18.6 29.35 L18.45 29.35 Q17.85 29.35 17.55 28.9 17.2 28.55 17.2 27.8 17.2 26.95 17.55 26.3 17.9 25.65 18.6 25.6 L18.75 25.6 M18.6 26.35 L18.35 26.45 18.05 27.0 17.9 27.75 18.1 28.4 18.45 28.6 18.6 28.6 19.0 28.25 19.25 27.1 19.1 26.5 Q18.95 26.35 18.7 26.35 L18.6 26.35 M16.9 25.65 L16.35 29.25 15.6 29.25 16.2 25.65 16.9 25.65 M13.05 26.75 Q13.05 26.25 13.4 25.9 13.7 25.6 14.3 25.6 15.25 25.6 15.4 26.55 L14.7 26.7 Q14.6 26.3 14.15 26.3 L13.85 26.35 13.75 26.6 13.8 26.8 14.25 27.0 14.95 27.4 15.2 28.1 14.9 28.95 Q14.55 29.35 14.0 29.35 12.9 29.35 12.65 28.25 L13.35 28.1 13.55 28.55 13.95 28.65 14.35 28.55 14.5 28.25 14.4 28.1 14.1 27.9 13.3 27.45 Q13.05 27.2 13.05 26.75 M10.95 26.45 L10.9 27.05 10.55 29.25 9.85 29.25 10.25 26.6 10.15 26.35 9.95 26.3 Q9.7 26.3 9.5 26.65 L9.2 27.65 8.95 29.25 8.25 29.25 8.6 26.6 8.55 26.35 8.35 26.3 Q8.25 26.3 8.0 26.45 L7.75 26.9 7.35 29.25 6.65 29.25 7.2 25.65 7.9 25.65 7.85 26.1 Q8.2 25.6 8.65 25.6 9.25 25.6 9.35 26.2 L9.75 25.8 10.3 25.6 Q10.6 25.6 10.8 25.85 L10.95 26.45 M12.6 25.65 L12.0 29.25 11.3 29.25 11.85 25.65 12.6 25.65 M5.1 26.35 L5.0 26.35 4.75 26.45 4.45 27.0 4.3 27.75 Q4.3 28.15 4.45 28.4 4.65 28.6 4.85 28.6 L5.0 28.6 5.35 28.25 5.65 27.1 5.5 26.5 5.1 26.35 M6.35 27.2 Q6.35 28.15 5.95 28.75 L5.0 29.35 4.8 29.35 Q4.3 29.35 3.95 28.9 3.6 28.5 3.6 27.8 3.6 26.95 3.95 26.3 4.3 25.65 5.0 25.6 L5.15 25.6 Q5.7 25.6 6.05 26.0 L6.35 27.2 M38.8 26.45 L38.5 26.55 38.15 27.05 37.95 28.15 37.7 29.25 37.0 29.25 37.55 25.65 38.25 25.65 38.15 26.35 Q38.55 25.6 39.0 25.6 L39.3 25.7 39.05 26.5 38.8 26.45 M35.6 26.3 Q35.4 26.35 35.25 26.5 35.05 26.75 35.0 27.2 L36.15 27.2 36.15 27.1 36.0 26.5 35.7 26.3 35.6 26.3 M35.75 25.6 Q36.25 25.6 36.5 26.0 36.85 26.45 36.85 27.15 L36.8 27.75 34.95 27.75 34.95 27.85 Q34.95 28.25 35.1 28.4 L35.45 28.65 35.6 28.65 36.0 28.15 36.7 28.3 36.2 29.1 35.6 29.35 35.45 29.35 Q34.95 29.35 34.6 28.9 34.25 28.4 34.25 27.7 34.25 26.95 34.65 26.2 35.0 25.65 35.6 25.6 L35.75 25.6 M31.8 27.8 L31.9 28.4 32.3 28.65 32.6 28.5 32.9 27.95 33.05 27.2 32.9 26.55 32.5 26.35 32.4 26.35 32.2 26.45 31.9 27.0 31.8 27.8 M30.75 27.15 L30.7 27.75 28.85 27.75 28.85 27.85 29.05 28.4 29.4 28.65 29.5 28.65 29.95 28.15 30.6 28.3 30.1 29.1 29.5 29.35 29.35 29.35 Q28.9 29.35 28.5 28.9 28.15 28.4 28.15 27.7 28.15 26.95 28.55 26.2 28.9 25.65 29.5 25.6 L29.7 25.6 Q30.2 25.6 30.45 26.0 L30.75 27.15 M30.1 27.1 L29.95 26.5 Q29.8 26.3 29.6 26.3 L29.5 26.3 Q29.3 26.35 29.2 26.5 28.95 26.75 28.95 27.2 L30.05 27.2 30.1 27.1 M23.15 26.5 L22.7 29.25 22.0 29.25 22.4 26.7 22.3 26.4 22.1 26.3 21.75 26.4 21.45 26.85 21.2 27.8 21.0 29.25 20.25 29.25 20.85 25.65 21.55 25.65 21.45 26.15 21.95 25.75 22.4 25.6 Q22.75 25.6 22.9 25.85 L23.15 26.5" fill="#1f8545" fill-rule="evenodd" stroke="none"/>
  </g>
</svg>
