<?xml version="1.0" encoding="UTF-8" standalone="no"?>
<svg xmlns:xlink="http://www.w3.org/1999/xlink" height="79.85px" width="81.75px" xmlns="http://www.w3.org/2000/svg">
  <g transform="matrix(1.0, 0.0, 0.0, 1.0, 0.0, 0.0)">
    <path d="M76.3 23.95 Q72.5 16.2 65.45 10.45 L64.4 9.6 Q57.5 4.35 50.0 2.9 38.6 0.8 28.25 4.25 22.45 6.15 17.65 9.6 13.75 12.4 10.55 16.25 3.9 24.3 2.7 36.1 1.55 47.8 6.3 57.2 10.7 65.25 18.7 70.8 26.7 76.3 35.7 77.55 46.5 78.75 55.85 74.95 65.0 71.25 71.6 63.25 78.15 55.75 79.3 44.4 80.5 33.5 76.3 23.95 M76.75 20.45 Q81.75 28.8 81.75 40.1 81.75 51.55 76.55 59.55 70.0 70.4 58.8 75.8 47.55 81.15 34.75 79.4 24.55 78.0 15.7 71.2 6.7 64.25 3.0 54.6 -1.8 43.55 1.1 31.25 3.85 19.3 12.65 11.1 L14.3 9.6 Q22.75 2.25 34.95 0.5 48.1 -1.4 59.15 4.1 63.6 6.3 67.55 9.6 L69.1 10.95 Q73.85 15.3 76.75 20.45 M55.45 9.6 Q61.2 11.05 66.4 15.25 73.3 20.85 75.6 28.4 77.15 33.2 77.5 37.9 77.85 43.25 76.55 47.35 L76.7 40.55 Q76.25 36.7 73.45 35.2 L71.3 35.15 Q70.2 35.5 69.5 36.35 69.15 38.55 71.45 41.85 73.75 45.2 73.25 47.6 72.7 55.55 68.0 62.35 63.25 69.25 56.1 72.35 44.7 77.0 35.35 75.05 L40.7 74.8 Q43.95 74.0 45.75 71.7 45.95 70.55 45.55 69.55 45.1 68.45 44.15 67.95 42.45 67.95 37.8 70.15 33.9 72.05 31.0 70.95 23.9 70.25 17.7 66.15 11.45 62.0 8.0 55.55 5.25 50.15 4.65 43.6 3.95 36.8 5.85 31.0 5.2 35.05 5.4 37.8 5.8 41.65 8.0 43.85 8.85 45.0 11.25 44.55 12.3 43.85 12.6 42.5 12.9 41.2 12.2 40.3 10.05 38.0 9.4 34.6 8.85 31.5 9.6 27.9 10.65 20.95 15.85 14.9 18.6 11.75 21.85 9.6 24.65 7.75 27.9 6.65 32.3 4.6 38.35 4.25 L49.3 5.0 41.95 5.0 Q37.8 5.5 36.15 8.5 L36.2 9.6 36.35 10.55 Q36.6 11.55 37.55 12.05 39.25 12.05 44.15 9.6 L44.25 9.55 Q48.3 7.5 51.65 8.95 L55.45 9.6 M58.2 24.2 L58.35 21.45 Q58.15 19.85 57.05 19.05 56.2 18.35 54.8 18.35 53.45 18.25 52.35 18.85 49.3 20.85 47.9 24.35 46.6 27.65 46.95 31.65 42.6 34.95 38.25 37.3 37.05 35.25 39.45 32.5 41.85 29.8 40.85 27.9 38.95 27.75 37.75 29.0 37.1 29.8 36.1 31.9 34.1 36.1 31.0 35.9 29.1 35.45 29.1 34.25 33.45 31.75 35.85 28.7 38.9 24.85 38.25 20.7 37.95 18.35 34.0 18.35 30.25 19.45 27.9 23.45 26.2 26.35 25.1 31.2 23.0 30.8 22.85 28.25 23.15 25.25 22.75 23.95 21.85 24.3 21.15 25.35 20.5 27.45 20.85 29.5 21.3 31.8 22.75 33.1 24.6 33.1 25.95 35.5 27.4 38.1 29.1 38.45 L32.1 38.3 Q34.05 37.55 34.75 37.8 34.75 38.9 34.3 39.4 28.05 42.65 25.1 44.6 19.95 48.1 18.8 52.95 18.35 57.8 21.6 59.75 L28.65 60.0 Q33.5 57.85 35.55 51.85 36.35 49.7 37.75 40.8 39.2 40.15 42.85 37.6 46.05 35.35 48.1 34.7 L48.7 35.45 Q48.9 35.8 48.55 36.1 44.2 39.25 42.45 42.65 40.8 45.7 41.35 49.85 41.8 53.75 43.9 56.7 46.8 59.85 52.1 60.65 55.1 60.5 57.0 59.8 59.4 58.95 61.05 57.2 63.4 54.2 63.4 49.0 62.75 46.35 61.55 44.65 60.0 42.5 57.75 42.2 54.95 41.4 51.4 43.6 49.5 45.9 49.5 49.0 50.25 50.75 50.9 51.5 51.9 52.8 53.25 52.95 55.2 52.1 54.05 50.2 52.65 47.85 53.25 46.85 53.8 45.7 55.0 45.3 L57.3 45.25 Q58.7 45.9 59.35 47.35 59.85 48.4 60.1 50.15 60.1 53.5 57.95 55.3 56.65 56.65 54.8 57.15 L50.9 57.4 Q47.95 56.25 46.4 53.25 45.1 50.6 45.1 47.1 45.5 44.55 46.2 42.95 47.1 40.8 48.85 39.4 52.2 36.75 55.9 37.8 59.05 37.05 58.2 35.2 57.3 34.1 53.95 34.5 51.2 34.8 50.9 32.4 L55.1 28.65 Q57.3 26.5 58.2 24.2 M54.75 21.6 L55.15 22.1 Q55.0 24.15 53.6 25.75 52.7 26.8 50.45 28.4 50.45 26.25 51.35 24.5 52.3 22.65 54.0 21.65 L54.75 21.6 M35.2 22.1 Q34.9 26.65 29.3 30.25 29.15 27.8 30.45 25.4 31.75 23.05 34.0 21.65 34.75 21.2 35.2 22.1 M33.55 43.4 Q32.75 53.35 26.5 57.2 L24.0 56.85 Q22.9 56.25 22.75 55.05 22.9 51.2 26.6 47.9 28.95 45.75 33.55 43.4" fill="#1263a7" fill-rule="evenodd" stroke="none"/>
  </g>
</svg>
