<?xml version="1.0" encoding="UTF-8" standalone="no"?>
<svg xmlns:xlink="http://www.w3.org/1999/xlink" height="52.75px" width="81.75px" xmlns="http://www.w3.org/2000/svg">
  <g transform="matrix(1.0, 0.0, 0.0, 1.0, 0.0, 0.0)">
    <path d="M46.9 16.95 Q47.4 16.95 47.7 17.3 48.05 17.65 48.05 18.15 L48.3 18.4 48.6 18.5 51.45 18.65 54.4 18.75 54.8 18.5 54.45 18.0 Q53.15 16.35 50.95 16.45 L30.65 17.3 Q30.35 16.85 30.3 16.25 L30.5 15.15 32.25 16.5 33.5 16.7 33.25 15.55 48.35 16.1 Q49.5 16.45 49.5 15.8 49.5 15.45 49.1 15.05 48.65 14.6 48.0 14.3 L46.25 14.1 43.3 14.25 32.95 15.0 32.6 13.45 32.8 11.95 34.25 13.2 Q35.25 13.85 36.45 13.85 L46.2 0.0 56.5 14.8 Q58.1 17.05 58.55 19.7 L58.75 21.9 Q58.75 23.65 58.35 25.25 57.55 28.3 55.2 30.65 51.65 34.25 46.6 34.25 43.8 34.25 41.75 33.2 L41.7 33.3 22.9 33.35 23.65 32.25 41.75 32.9 41.95 31.0 24.15 31.6 25.4 29.8 42.0 30.7 42.6 28.65 25.85 29.2 27.05 27.4 42.8 28.25 Q43.25 27.1 44.0 26.1 L27.6 26.65 28.8 24.95 44.1 25.95 44.15 25.85 44.65 25.25 46.0 23.95 29.25 24.35 29.35 23.55 29.1 22.75 47.2 23.3 Q48.3 22.8 49.5 22.8 51.25 22.8 52.1 23.3 L52.35 23.45 55.3 23.5 55.5 23.35 55.6 23.25 55.5 23.8 55.35 24.25 55.3 24.0 55.1 23.75 52.85 23.8 54.15 25.25 54.55 25.9 54.95 25.25 Q55.75 23.8 55.75 22.1 L55.75 21.8 55.55 21.65 55.35 21.55 43.3 21.8 30.85 22.05 29.5 22.05 28.85 22.15 28.1 20.3 Q27.9 19.6 28.1 18.95 L28.35 18.4 29.5 19.3 Q30.85 20.25 32.1 20.3 L55.35 21.15 55.5 21.1 55.6 20.85 55.7 21.35 55.4 19.7 54.85 18.55 55.1 19.15 54.75 19.1 39.1 19.5 31.6 19.7 31.2 19.45 30.95 19.05 30.65 17.95 43.4 18.4 43.8 18.15 43.5 17.85 42.8 17.25 46.9 16.95" fill="#dd3742" fill-rule="evenodd" stroke="none"/>
    <path d="M81.75 38.75 L81.75 41.75 80.35 41.75 Q79.9 41.75 79.6 42.15 L76.65 45.65 79.6 49.15 Q79.9 49.6 80.35 49.6 L81.75 49.6 81.75 52.65 78.25 52.65 Q77.6 52.65 77.15 52.1 L74.15 48.35 74.0 48.35 70.95 52.1 Q70.55 52.65 69.85 52.65 L53.3 52.65 Q52.7 52.65 52.3 52.2 51.9 51.75 51.9 51.1 L51.9 40.3 Q51.9 39.65 52.35 39.2 52.75 38.75 53.4 38.75 L64.5 38.75 64.5 41.75 56.55 41.75 Q56.25 41.75 56.0 42.0 55.75 42.25 55.75 42.6 L55.75 44.15 63.5 44.15 63.5 47.15 55.75 47.15 55.75 48.8 Q55.75 49.55 56.6 49.55 L67.8 49.6 68.55 49.15 71.45 45.65 68.45 42.15 Q68.2 41.75 67.8 41.75 L66.4 41.75 66.35 38.75 69.75 38.75 Q70.5 38.75 70.95 39.4 L74.05 42.9 77.15 39.4 Q77.65 38.75 78.35 38.75 L81.75 38.75 M45.7 38.7 L49.25 38.7 49.25 52.7 45.6 52.7 45.6 44.75 41.55 52.4 Q41.3 52.75 39.85 52.75 L38.1 52.4 34.05 44.75 34.05 51.05 Q34.05 51.65 33.55 52.2 33.0 52.75 32.4 52.75 L17.05 52.7 Q16.45 52.7 16.0 52.25 15.55 51.8 15.55 51.2 L15.55 40.25 Q15.55 39.65 16.0 39.15 16.4 38.7 17.05 38.7 L27.95 38.7 27.95 41.75 20.25 41.75 Q19.9 41.75 19.7 42.0 L19.45 42.55 19.45 44.2 27.15 44.2 27.15 47.15 19.4 47.15 19.4 48.85 19.65 49.4 Q19.9 49.65 20.2 49.65 L29.55 49.65 30.15 49.4 30.4 48.85 30.4 38.7 33.95 38.7 Q34.9 38.7 35.5 39.65 L39.9 47.75 44.15 39.65 Q44.75 38.7 45.7 38.7 M9.0 41.65 L3.4 41.65 3.4 52.7 0.0 52.7 0.0 38.7 11.2 38.7 Q11.85 38.7 12.5 39.15 13.15 39.65 13.15 40.3 L13.15 46.85 Q13.15 47.45 12.5 47.9 11.9 48.35 11.25 48.35 L4.6 48.35 4.6 45.35 9.0 45.35 9.55 45.1 9.8 44.5 9.8 42.5 9.55 41.9 9.0 41.65" fill="#156f3c" fill-rule="evenodd" stroke="none"/>
  </g>
</svg>
