<?xml version="1.0" encoding="UTF-8" standalone="no"?>
<svg xmlns:xlink="http://www.w3.org/1999/xlink" height="24.9px" width="82.3px" xmlns="http://www.w3.org/2000/svg">
  <g transform="matrix(1.0, 0.0, 0.0, 1.0, 0.0, 0.0)">
    <path d="M33.7 1.0 L34.7 1.55 35.25 2.55 35.65 3.9 Q35.9 5.4 35.75 7.4 35.45 10.75 34.15 13.1 32.85 15.4 30.75 15.4 L29.5 15.4 28.75 24.4 27.0 24.4 28.95 0.75 32.2 0.75 33.7 1.0 M33.7 4.8 Q33.35 3.8 32.0 3.8 L30.5 3.8 29.8 12.35 30.6 12.35 Q32.4 12.35 33.05 10.95 33.75 9.5 33.9 7.55 34.05 5.85 33.7 4.8" fill="#38a443" fill-rule="evenodd" stroke="none"/>
    <path d="M40.65 1.0 Q41.15 1.2 41.45 1.55 L42.0 2.55 42.3 3.9 Q42.6 5.45 42.45 7.15 L42.25 8.5 41.95 9.85 41.5 11.1 41.05 12.25 40.5 13.05 39.75 13.8 39.9 14.05 40.15 14.8 41.95 24.4 39.9 24.4 38.85 18.2 38.4 16.25 37.8 14.55 36.6 14.55 35.8 24.4 34.0 24.4 35.95 0.75 39.55 0.75 40.65 1.0 M37.5 3.8 L36.85 11.6 38.1 11.6 Q38.9 11.6 39.35 11.05 L40.15 9.55 40.6 7.35 40.55 5.6 40.1 4.3 Q39.8 3.8 38.85 3.8 L37.5 3.8" fill="#38a443" fill-rule="evenodd" stroke="none"/>
    <path d="M49.75 0.75 L52.05 24.4 50.15 24.4 49.55 18.1 44.95 18.1 43.15 24.4 41.45 24.4 48.05 0.75 49.75 0.75 M49.25 15.1 L48.3 5.8 45.75 15.1 49.25 15.1" fill="#38a443" fill-rule="evenodd" stroke="none"/>
    <path d="M60.85 0.75 L62.65 0.75 58.2 12.2 60.7 24.4 58.75 24.4 56.95 15.5 53.5 24.4 51.7 24.4 56.3 12.4 53.95 0.75 55.9 0.75 57.6 9.1 60.85 0.75" fill="#38a443" fill-rule="evenodd" stroke="none"/>
    <path d="M20.45 22.7 L20.95 22.7 20.95 22.15 20.45 22.15 20.45 22.7 M20.45 19.95 L21.55 19.95 21.55 18.85 20.45 18.85 20.45 19.95 M17.7 21.6 L17.4 21.6 17.1 21.6 17.1 22.7 17.1 23.0 17.1 23.25 17.7 23.25 17.7 22.7 17.95 22.7 18.2 22.7 18.2 22.15 17.95 22.15 17.7 22.15 17.7 21.85 17.7 21.6 M17.7 18.6 L17.7 18.3 17.4 18.3 17.1 18.3 17.1 18.85 16.55 18.85 16.55 19.95 16.85 19.95 17.1 19.95 17.1 20.2 17.1 20.5 17.4 20.5 17.7 20.5 17.7 20.2 17.7 19.95 18.2 19.95 18.25 19.65 18.2 19.4 18.2 18.85 17.95 18.8 17.7 18.85 17.7 18.6 M17.95 15.5 L17.7 15.5 17.7 15.25 17.7 14.95 17.4 14.95 17.1 14.95 17.1 15.5 16.55 15.5 16.55 16.65 16.85 16.65 17.1 16.65 17.1 16.9 17.1 17.15 17.4 17.15 17.7 17.15 17.7 16.9 17.7 16.65 17.95 16.65 18.2 16.65 18.25 16.35 18.2 16.1 18.2 15.5 17.95 15.5 M17.7 12.75 L17.7 12.5 17.7 12.2 17.4 12.2 17.1 12.2 17.1 13.3 17.1 13.6 17.1 13.9 17.4 13.9 17.7 13.9 17.65 13.6 17.7 13.3 17.95 13.3 18.2 13.3 18.25 13.05 18.2 12.75 17.7 12.75 M20.45 12.75 L20.45 13.3 20.95 13.3 20.95 12.75 20.45 12.75 M21.55 15.5 L20.45 15.5 20.45 16.65 21.55 16.65 21.55 15.5 M14.9 22.15 L13.8 22.15 13.8 22.7 14.9 22.7 14.9 22.45 14.9 22.15 M15.45 18.85 L13.8 18.85 13.8 19.95 15.45 19.95 15.45 18.85 M15.45 15.5 L13.8 15.5 13.8 16.65 15.45 16.65 15.45 15.5 M14.9 12.75 L13.8 12.75 13.8 13.3 14.9 13.3 14.9 13.05 14.9 12.75 M15.45 9.45 L13.8 9.45 13.8 10.55 15.45 10.55 15.45 9.45 M15.45 6.15 L13.8 6.15 13.8 7.25 15.45 7.25 15.45 6.15 M14.9 3.4 L13.8 3.4 13.8 3.9 14.9 3.9 14.9 3.65 14.9 3.4 M21.55 9.45 L20.45 9.45 20.45 10.55 21.55 10.55 21.55 9.45 M21.55 7.25 L21.55 6.15 20.45 6.15 20.45 7.25 21.55 7.25 M17.95 9.45 L17.7 9.45 17.7 9.2 17.7 8.9 17.4 8.9 17.1 8.9 17.1 9.45 16.55 9.45 16.55 10.55 16.85 10.55 17.1 10.55 17.1 10.8 17.1 11.1 17.4 11.1 17.7 11.1 17.7 10.85 17.7 10.55 17.95 10.55 18.2 10.55 18.25 10.3 18.2 10.0 18.2 9.45 17.95 9.45 M18.2 6.7 L18.2 6.15 17.95 6.1 17.7 6.15 17.7 5.9 17.7 5.6 17.4 5.6 17.1 5.6 17.1 6.15 16.55 6.15 16.55 7.25 16.85 7.25 17.1 7.25 17.1 7.55 17.1 7.8 17.4 7.8 17.7 7.8 17.7 7.5 17.7 7.25 18.2 7.25 18.25 6.95 18.2 6.7 M17.95 3.4 L17.7 3.4 17.7 3.1 17.7 2.85 17.4 2.85 17.1 2.85 17.1 3.9 17.1 4.2 17.1 4.5 17.4 4.5 17.7 4.5 17.7 4.2 17.7 3.9 17.95 3.9 18.2 3.9 18.25 3.65 18.2 3.4 17.95 3.4 M20.45 0.05 L20.45 0.35 20.45 0.65 20.45 0.9 20.45 1.15 20.95 1.15 21.25 1.15 21.55 1.15 21.55 0.05 26.5 0.05 26.5 3.4 26.25 3.4 25.95 3.4 25.95 3.65 25.95 3.9 25.95 10.0 25.65 10.0 25.4 10.0 25.4 10.25 25.4 10.55 25.4 16.1 25.15 16.1 24.85 16.1 24.85 16.35 24.85 16.65 24.85 22.7 24.6 22.7 24.3 22.7 24.3 22.95 24.3 23.25 24.3 24.9 17.7 24.9 17.7 24.65 17.7 24.35 17.4 24.35 17.1 24.35 17.1 24.65 17.1 24.9 16.85 24.9 16.55 24.9 12.15 24.9 12.15 24.65 12.15 24.35 11.6 24.35 11.6 23.25 11.9 23.25 12.15 23.25 12.15 23.0 12.15 22.7 12.7 22.7 12.7 22.4 12.7 22.15 12.4 22.15 12.15 22.15 12.15 21.85 12.15 21.6 11.9 21.6 11.6 21.6 11.6 20.5 12.15 20.5 12.15 20.2 12.15 19.95 12.4 19.95 12.7 19.95 12.7 18.85 12.4 18.85 12.15 18.85 12.15 18.55 12.15 18.3 11.85 18.3 11.6 18.3 11.6 17.15 11.9 17.2 12.15 17.15 12.15 16.9 12.15 16.65 12.4 16.65 12.7 16.65 12.7 16.35 12.7 16.1 12.7 15.8 12.7 15.5 12.4 15.5 12.15 15.5 12.15 15.25 12.15 14.95 11.6 14.95 11.6 14.4 11.6 13.9 11.9 13.9 12.15 13.9 12.15 13.6 12.15 13.3 12.7 13.3 12.7 13.05 12.7 12.75 12.4 12.75 12.15 12.75 12.15 12.5 12.15 12.2 11.9 12.2 11.6 12.2 11.6 11.1 12.15 11.1 12.15 10.8 12.15 10.55 12.4 10.55 12.7 10.55 12.7 10.0 12.7 9.75 12.7 9.45 12.4 9.45 12.15 9.45 12.15 9.2 12.15 8.9 11.9 8.9 11.6 8.9 11.6 7.8 11.85 7.8 12.15 7.8 12.15 7.55 12.15 7.25 12.4 7.25 12.7 7.25 12.7 6.95 12.7 6.7 12.7 6.4 12.7 6.15 12.4 6.15 12.15 6.15 12.15 5.85 12.15 5.6 11.6 5.6 11.6 4.5 11.9 4.5 12.15 4.5 12.15 4.2 12.15 3.9 12.7 3.9 12.7 3.65 12.7 3.4 12.4 3.4 12.15 3.4 12.15 3.1 12.15 2.85 11.9 2.85 11.6 2.85 11.6 1.7 12.15 1.7 12.15 1.45 12.15 1.15 12.4 1.15 12.7 1.15 12.7 0.05 13.8 0.05 13.8 0.35 13.8 0.65 13.8 0.9 13.8 1.15 14.05 1.15 14.35 1.15 15.45 1.15 15.45 0.05 16.55 0.05 16.55 1.15 16.85 1.15 17.1 1.15 17.1 1.7 17.4 1.75 17.7 1.7 17.7 1.45 17.7 1.15 17.95 1.2 18.2 1.15 18.25 0.9 18.2 0.65 18.2 0.05 18.5 0.05 18.75 0.05 19.9 0.05 20.15 0.05 20.45 0.05 M20.95 3.4 L20.45 3.4 20.45 3.9 20.95 3.9 20.95 3.4" fill="#38a443" fill-rule="evenodd" stroke="none"/>
    <path d="M2.75 2.85 L2.75 1.7 3.3 1.7 3.3 1.15 4.45 1.15 4.45 1.45 4.45 1.7 4.7 1.7 4.95 1.7 4.95 2.85 4.7 2.85 4.45 2.85 4.45 3.1 4.45 3.4 3.3 3.4 3.3 3.1 3.3 2.85 3.05 2.85 2.75 2.85" fill="#38a443" fill-rule="evenodd" stroke="none"/>
    <path d="M5.5 2.85 L5.5 1.7 6.05 1.7 6.05 1.15 6.65 1.15 7.2 1.15 7.2 1.45 7.2 1.7 7.45 1.7 7.7 1.7 7.7 2.85 7.45 2.85 7.2 2.85 7.2 3.1 7.2 3.4 6.05 3.4 6.05 3.1 6.05 2.85 5.8 2.85 5.5 2.85" fill="#38a443" fill-rule="evenodd" stroke="none"/>
    <path d="M11.05 1.15 L11.05 3.4 10.5 3.4 10.5 3.9 10.75 3.9 11.05 3.9 11.05 4.5 11.05 6.15 8.85 6.15 8.85 3.9 9.4 3.9 9.4 3.4 9.1 3.4 8.85 3.4 8.8 3.1 8.85 2.85 8.85 1.15 11.05 1.15" fill="#38a443" fill-rule="evenodd" stroke="none"/>
    <path d="M0.0 2.85 L0.0 1.7 1.1 1.7 1.1 2.85 0.0 2.85" fill="#38a443" fill-rule="evenodd" stroke="none"/>
    <path d="M4.7 4.5 L4.95 4.5 4.95 5.6 4.7 5.6 4.45 5.6 4.45 5.9 4.45 6.15 3.3 6.15 3.3 5.9 3.3 5.6 3.05 5.6 2.75 5.6 2.75 4.5 3.3 4.5 3.3 3.9 4.45 3.9 4.45 4.2 4.45 4.5 4.7 4.5" fill="#38a443" fill-rule="evenodd" stroke="none"/>
    <path d="M5.5 5.6 L5.5 4.5 6.05 4.5 6.05 3.9 6.65 3.9 7.2 3.9 7.2 4.2 7.2 4.5 7.45 4.5 7.7 4.5 7.7 5.6 7.45 5.6 7.2 5.6 7.2 5.9 7.2 6.15 6.05 6.15 6.05 5.9 6.05 5.6 5.8 5.6 5.5 5.6" fill="#38a443" fill-rule="evenodd" stroke="none"/>
    <path d="M0.0 5.6 L0.0 4.5 1.1 4.5 1.1 5.6 0.0 5.6" fill="#38a443" fill-rule="evenodd" stroke="none"/>
    <path d="M3.05 8.9 L2.75 8.9 2.75 8.35 2.75 7.8 3.3 7.8 3.3 7.25 4.45 7.25 4.45 7.55 4.45 7.8 4.7 7.8 4.95 7.8 4.95 8.9 4.7 8.9 4.45 8.9 4.45 9.2 4.45 9.45 3.3 9.45 3.3 9.2 3.3 8.9 3.05 8.9" fill="#38a443" fill-rule="evenodd" stroke="none"/>
    <path d="M5.5 8.9 L5.5 8.35 5.5 7.8 6.05 7.8 6.05 7.25 6.65 7.25 7.2 7.25 7.2 7.55 7.2 7.8 7.45 7.8 7.7 7.8 7.7 8.9 7.45 8.9 7.2 8.9 7.2 9.2 7.2 9.45 6.05 9.45 6.05 9.2 6.05 8.9 5.8 8.9 5.5 8.9" fill="#38a443" fill-rule="evenodd" stroke="none"/>
    <path d="M11.05 7.25 L11.05 9.45 8.85 9.45 8.85 7.25 11.05 7.25" fill="#38a443" fill-rule="evenodd" stroke="none"/>
    <path d="M0.0 8.9 L0.0 7.8 1.1 7.8 1.1 8.9 0.0 8.9" fill="#38a443" fill-rule="evenodd" stroke="none"/>
    <path d="M4.7 11.1 L4.95 11.1 4.95 11.65 4.95 12.2 4.7 12.2 4.45 12.2 4.45 12.5 4.45 12.75 3.3 12.75 3.3 12.5 3.3 12.2 3.05 12.2 2.75 12.2 2.75 11.1 3.3 11.1 3.3 10.55 4.45 10.55 4.45 10.8 4.45 11.1 4.7 11.1" fill="#38a443" fill-rule="evenodd" stroke="none"/>
    <path d="M7.2 10.55 L7.2 10.8 7.2 11.1 7.45 11.1 7.7 11.1 7.7 11.65 7.7 12.2 7.45 12.2 7.2 12.2 7.2 12.5 7.2 12.75 6.05 12.75 6.05 12.5 6.05 12.2 5.8 12.2 5.5 12.2 5.5 11.1 6.05 11.1 6.05 10.55 6.65 10.55 7.2 10.55" fill="#38a443" fill-rule="evenodd" stroke="none"/>
    <path d="M11.05 10.55 L11.05 12.75 10.5 12.75 10.5 13.3 10.75 13.3 11.05 13.3 11.05 13.9 11.05 15.5 8.85 15.5 8.85 13.3 9.4 13.3 9.4 12.75 9.1 12.75 8.85 12.75 8.8 12.5 8.85 12.2 8.85 10.55 11.05 10.55" fill="#38a443" fill-rule="evenodd" stroke="none"/>
    <path d="M0.0 12.2 L0.0 11.1 1.1 11.1 1.1 12.2 0.0 12.2" fill="#38a443" fill-rule="evenodd" stroke="none"/>
    <path d="M2.75 14.95 L2.75 13.9 3.3 13.9 3.3 13.3 4.45 13.3 4.45 13.6 4.45 13.9 4.7 13.9 4.95 13.9 4.95 14.4 4.95 14.95 4.7 14.95 4.45 14.95 4.45 15.25 4.45 15.5 3.3 15.5 3.3 15.25 3.3 14.95 3.05 14.95 2.75 14.95" fill="#38a443" fill-rule="evenodd" stroke="none"/>
    <path d="M7.2 13.3 L7.2 13.6 7.2 13.9 7.45 13.9 7.7 13.9 7.7 14.4 7.7 14.95 7.45 14.95 7.2 14.95 7.2 15.25 7.2 15.5 6.05 15.5 6.05 15.25 6.05 14.95 5.8 14.95 5.5 14.95 5.5 13.9 6.05 13.9 6.05 13.3 6.65 13.3 7.2 13.3" fill="#38a443" fill-rule="evenodd" stroke="none"/>
    <path d="M0.0 14.95 L0.0 13.9 1.1 13.9 1.1 14.95 0.0 14.95" fill="#38a443" fill-rule="evenodd" stroke="none"/>
    <path d="M4.7 17.15 L4.95 17.15 4.95 18.3 4.7 18.3 4.45 18.3 4.45 18.6 4.45 18.85 3.3 18.85 3.3 18.6 3.3 18.3 3.05 18.3 2.75 18.3 2.75 17.15 3.3 17.15 3.3 16.65 4.45 16.65 4.45 16.9 4.45 17.15 4.7 17.15" fill="#38a443" fill-rule="evenodd" stroke="none"/>
    <path d="M7.2 16.65 L7.2 16.9 7.2 17.15 7.45 17.15 7.7 17.15 7.7 18.3 7.45 18.3 7.2 18.3 7.2 18.6 7.2 18.85 6.05 18.85 6.05 18.6 6.05 18.3 5.8 18.3 5.5 18.3 5.5 17.15 6.05 17.15 6.05 16.65 6.65 16.65 7.2 16.65" fill="#38a443" fill-rule="evenodd" stroke="none"/>
    <path d="M11.05 16.65 L11.05 18.85 8.85 18.85 8.85 16.65 11.05 16.65" fill="#38a443" fill-rule="evenodd" stroke="none"/>
    <path d="M0.0 18.3 L0.0 17.15 1.1 17.15 1.1 18.3 0.0 18.3" fill="#38a443" fill-rule="evenodd" stroke="none"/>
    <path d="M2.75 21.6 L2.75 20.5 3.3 20.5 3.3 19.95 4.45 19.95 4.45 20.2 4.45 20.5 4.7 20.5 4.95 20.5 4.95 21.6 4.7 21.6 4.45 21.6 4.45 21.85 4.45 22.15 3.3 22.15 3.3 21.85 3.3 21.6 3.05 21.6 2.75 21.6" fill="#38a443" fill-rule="evenodd" stroke="none"/>
    <path d="M7.2 19.95 L7.2 20.2 7.2 20.5 7.45 20.5 7.7 20.5 7.7 21.6 7.45 21.6 7.2 21.6 7.2 21.85 7.2 22.15 6.05 22.15 6.05 21.85 6.05 21.6 5.8 21.6 5.5 21.6 5.5 20.5 6.05 20.5 6.05 19.95 6.65 19.95 7.2 19.95" fill="#38a443" fill-rule="evenodd" stroke="none"/>
    <path d="M11.05 19.95 L11.05 21.6 11.05 22.15 10.5 22.15 10.5 22.7 10.75 22.7 11.05 22.7 11.05 23.25 11.05 24.9 8.85 24.9 8.85 22.7 9.4 22.7 9.4 22.15 9.1 22.15 8.85 22.15 8.8 21.85 8.85 21.6 8.85 19.95 11.05 19.95" fill="#38a443" fill-rule="evenodd" stroke="none"/>
    <path d="M0.0 21.6 L0.0 20.5 1.1 20.5 1.1 21.6 0.0 21.6" fill="#38a443" fill-rule="evenodd" stroke="none"/>
    <path d="M4.7 23.25 L4.95 23.25 4.95 24.35 4.7 24.35 4.45 24.35 4.45 24.65 4.45 24.9 3.3 24.9 3.3 24.65 3.3 24.35 3.05 24.35 2.75 24.35 2.75 23.8 2.75 23.25 3.3 23.25 3.3 22.7 4.45 22.7 4.45 23.0 4.45 23.25 4.7 23.25" fill="#38a443" fill-rule="evenodd" stroke="none"/>
    <path d="M5.5 24.35 L5.5 23.8 5.5 23.25 6.05 23.25 6.05 22.7 6.65 22.7 7.2 22.7 7.2 23.0 7.2 23.25 7.45 23.25 7.7 23.25 7.7 24.35 7.45 24.35 7.2 24.35 7.2 24.65 7.2 24.9 6.05 24.9 6.05 24.65 6.05 24.35 5.8 24.35 5.5 24.35" fill="#38a443" fill-rule="evenodd" stroke="none"/>
    <path d="M0.0 24.35 L0.0 23.25 1.1 23.25 1.1 24.35 0.0 24.35" fill="#38a443" fill-rule="evenodd" stroke="none"/>
    <path d="M68.6 0.75 L70.9 24.4 68.95 24.4 68.35 18.1 63.75 18.1 61.95 24.4 60.3 24.4 66.9 0.75 68.6 0.75 M68.1 15.1 L67.15 5.8 64.55 15.1 68.1 15.1" fill="#38a443" fill-rule="evenodd" stroke="none"/>
    <path d="M72.35 24.4 L70.55 24.4 72.5 0.75 74.3 0.75 72.35 24.4" fill="#38a443" fill-rule="evenodd" stroke="none"/>
    <path d="M82.25 7.15 L81.75 9.85 81.35 11.1 80.85 12.25 80.3 13.05 79.55 13.8 79.7 14.05 79.95 14.8 81.75 24.4 79.7 24.4 78.7 18.2 78.2 16.25 77.6 14.55 76.4 14.55 75.6 24.4 73.8 24.4 75.8 0.75 79.35 0.75 80.45 1.0 81.25 1.55 81.8 2.55 82.15 3.9 Q82.4 5.45 82.25 7.15 M77.3 3.8 L76.65 11.6 77.9 11.6 Q78.7 11.6 79.2 11.05 L79.95 9.55 Q80.35 8.5 80.4 7.35 L80.35 5.6 79.9 4.3 Q79.6 3.8 78.65 3.8 L77.3 3.8" fill="#38a443" fill-rule="evenodd" stroke="none"/>
  </g>
</svg>
