<?xml version="1.0" encoding="UTF-8" standalone="no"?>
<svg xmlns:xlink="http://www.w3.org/1999/xlink" height="105.15px" width="90.3px" xmlns="http://www.w3.org/2000/svg">
  <g transform="matrix(1.0, 0.0, 0.0, 1.0, 9.0, 0.0)">
    <path d="M33.45 33.65 L29.2 62.35 50.65 43.55" fill="none" stroke="#3c5071" stroke-linecap="round" stroke-linejoin="round" stroke-width="1.0"/>
    <path d="M37.6 33.65 L41.85 62.35 20.4 43.55" fill="none" stroke="#44869e" stroke-linecap="round" stroke-linejoin="round" stroke-width="1.0"/>
    <path d="M33.1 27.95 Q33.1 27.2 33.65 26.65 34.2 26.05 35.05 26.05 35.8 26.05 36.4 26.65 36.95 27.2 36.95 27.95 36.95 28.8 36.4 29.3 35.8 29.85 35.05 29.85 34.2 29.85 33.65 29.3 33.1 28.8 33.1 27.95" fill="#58809a" fill-rule="evenodd" stroke="none"/>
    <path d="M32.4 71.95 L24.95 79.4 24.95 80.8 18.3 87.4 18.3 71.25 18.4 71.25 25.0 64.55 32.4 71.95" fill="#000000" fill-rule="evenodd" stroke="none"/>
    <path d="M47.9 23.45 L46.2 25.15 40.65 19.65 47.9 12.35 47.9 23.45" fill="#000000" fill-rule="evenodd" stroke="none"/>
    <path d="M66.75 45.85 L46.1 25.25 54.2 17.15 81.3 44.3 81.3 59.7 35.9 105.15 24.85 94.15 24.85 79.4 32.3 71.95 36.45 76.1 66.75 45.85" fill="#ecb12c" fill-rule="evenodd" stroke="none"/>
    <path d="M29.7 5.9 L29.75 5.9 35.6 0.0 47.65 12.05 40.4 19.3 36.5 15.5 6.15 45.85 24.6 64.3 18.1 70.8 -8.55 44.2 29.7 5.9" fill="#000000" fill-rule="evenodd" stroke="none"/>
    <path d="M17.7 71.05 L17.8 71.25 17.8 87.4 16.55 87.4 -9.0 61.8 -9.0 44.4 17.7 71.05" fill="#000000" fill-rule="evenodd" stroke="none"/>
  </g>
</svg>
