<?xml version="1.0" encoding="UTF-8" standalone="no"?>
<svg xmlns:xlink="http://www.w3.org/1999/xlink" height="65.25px" width="307.05px" xmlns="http://www.w3.org/2000/svg">
  <g transform="matrix(1.0, 0.0, 0.0, 1.0, 153.5, 32.6)">
    <path d="M-65.4 -17.2 L-65.4 20.8 -73.95 20.8 -73.95 -17.2 -65.4 -17.2" fill="#000000" fill-rule="evenodd" stroke="none"/>
    <path d="M-31.2 -17.2 L-31.2 20.7 -39.15 20.7 -54.65 -5.35 -54.65 20.7 -62.35 20.7 -62.35 -13.1 Q-62.35 -14.8 -61.2 -15.95 -59.95 -17.1 -58.4 -17.2 L-54.2 -17.2 -38.9 8.85 -38.9 -17.2 -31.2 -17.2" fill="#000000" fill-rule="evenodd" stroke="none"/>
    <path d="M149.65 -12.05 Q153.55 -6.85 153.55 1.95 153.55 10.55 149.65 15.75 145.7 20.8 138.95 20.8 132.2 20.8 128.25 15.75 124.45 10.8 124.45 1.95 124.45 -6.9 128.25 -12.05 132.3 -17.2 138.95 -17.2 145.4 -17.2 149.65 -12.05 M130.65 1.95 Q130.65 7.95 132.75 11.15 135.05 14.45 138.95 14.45 142.85 14.45 145.15 11.15 147.35 7.85 147.35 1.95 147.35 -4.1 145.15 -7.45 142.85 -10.75 138.95 -10.75 135.05 -10.75 132.75 -7.45 130.65 -4.1 130.65 1.95" fill="#000000" fill-rule="evenodd" stroke="none"/>
    <path d="M6.3 -13.85 Q8.15 -15.85 10.35 -16.5 12.4 -17.3 16.65 -17.3 L26.75 -17.3 26.75 -10.45 15.75 -10.45 Q11.6 -10.45 9.55 -7.55 8.3 -5.85 7.85 -2.15 L26.75 -2.15 26.75 5.2 15.6 5.2 7.8 -1.35 7.6 1.65 Q7.6 7.6 9.3 10.7 L9.55 10.95 Q11.6 13.9 15.75 13.9 L26.75 13.9 26.75 20.7 15.05 20.7 Q8.25 20.7 4.75 16.1 1.4 11.15 1.4 1.65 1.4 -3.2 2.65 -7.45 3.95 -11.6 6.3 -13.85" fill="#000000" fill-rule="evenodd" stroke="none"/>
    <path d="M28.4 -17.3 L36.75 -17.3 36.75 -1.8 Q36.75 7.35 37.3 8.75 38.25 11.4 43.2 11.4 L53.05 11.4 53.05 20.7 41.35 20.7 Q35.85 20.7 33.2 18.95 28.4 15.75 28.4 6.35 L28.4 -17.3" fill="#000000" fill-rule="evenodd" stroke="none"/>
    <path d="M-2.65 1.65 Q-2.65 6.65 -3.9 10.9 -5.25 15.05 -7.55 17.25 -9.15 19.05 -11.6 19.9 -13.75 20.7 -18.0 20.7 L-28.0 20.7 -28.0 -17.2 -25.6 -17.2 -24.9 -17.3 -16.3 -17.3 Q-9.4 -17.3 -6.1 -12.7 -2.65 -7.7 -2.65 1.65 M-10.8 10.95 Q-8.95 8.3 -8.95 1.65 -8.95 -4.6 -10.75 -7.7 -12.4 -10.65 -16.3 -10.65 L-22.05 -10.65 -22.05 13.9 -17.1 13.9 Q-12.75 13.9 -10.8 10.95" fill="#000000" fill-rule="evenodd" stroke="none"/>
    <path d="M77.95 -1.7 Q78.55 -1.85 79.1 -2.15 80.25 -3.0 80.25 -5.4 80.25 -7.8 79.1 -8.6 L77.95 -8.95 63.85 -8.95 63.85 -1.7 77.95 -1.7 M56.65 -17.2 L77.95 -17.2 82.0 -15.15 Q86.1 -11.9 86.1 -5.5 86.1 1.85 79.6 4.35 L73.05 5.3 63.85 -1.15 63.85 20.7 56.65 20.7 56.65 -17.2" fill="#000000" fill-rule="evenodd" stroke="none"/>
    <path d="M110.25 -1.7 L111.4 -2.15 Q112.55 -3.0 112.55 -5.4 112.55 -7.8 111.4 -8.6 L110.25 -8.95 97.75 -8.95 97.75 -1.7 110.25 -1.7 M90.6 -17.2 L111.75 -17.2 115.95 -15.15 Q120.0 -11.9 120.0 -5.5 120.0 3.35 110.9 5.05 L121.6 20.8 112.05 20.8 97.75 -0.9 97.75 20.7 90.6 20.7 90.6 -17.2" fill="#000000" fill-rule="evenodd" stroke="none"/>
    <path d="M-117.1 -16.95 L-118.15 -15.85 -118.45 -15.35 -118.5 -15.25 -119.05 -14.45 -119.6 -13.4 -119.6 32.65 Q-125.05 32.6 -130.1 30.9 L-130.1 -9.5 Q-130.1 -16.05 -126.05 -21.1 -123.05 -24.8 -118.7 -26.95 -114.2 -29.15 -108.95 -29.15 -104.6 -29.15 -100.55 -27.45 -92.15 -24.1 -89.1 -16.2 -87.85 -12.95 -87.85 -9.5 -87.85 -1.85 -92.15 3.35 -97.7 10.15 -108.95 10.15 L-118.15 10.15 -118.15 0.7 -106.85 0.7 Q-105.05 0.7 -103.0 -0.55 -100.55 -2.05 -99.3 -4.55 L-99.2 -4.9 -98.95 -5.5 -98.5 -7.0 -98.5 -7.25 -98.3 -9.05 Q-98.3 -13.65 -101.6 -16.85 -104.8 -20.1 -109.4 -20.1 -113.9 -20.1 -117.1 -16.95" fill="#4aa0da" fill-rule="evenodd" stroke="none"/>
    <path d="M-107.9 -31.0 L-108.35 -31.0 Q-112.85 -32.35 -117.8 -32.6 L-117.1 -32.6 Q-112.15 -32.6 -107.9 -31.0" fill="#4aa0da" fill-rule="evenodd" stroke="none"/>
    <path d="M-141.45 -13.55 L-141.35 -13.55 Q-140.75 -21.35 -134.0 -26.85 -127.2 -32.35 -117.8 -32.6 -112.85 -32.35 -108.35 -31.0 -117.8 -30.75 -124.45 -24.8 -131.1 -18.9 -131.1 -10.55 L-131.1 30.55 Q-136.85 28.5 -141.45 24.6 L-141.45 -13.55" fill="#4aa0da" fill-rule="evenodd" stroke="none"/>
    <path d="M-142.6 -24.65 Q-134.75 -31.45 -124.35 -32.45 L-126.85 -31.7 Q-134.3 -29.25 -138.7 -23.4 -142.7 -18.15 -142.6 -12.75 L-142.6 23.45 Q-146.85 19.65 -149.6 14.8 -153.5 7.5 -153.5 -0.55 -153.5 -7.55 -150.6 -13.9 -147.75 -20.1 -142.6 -24.65" fill="#4aa0da" fill-rule="evenodd" stroke="none"/>
    <path d="M-86.2 -9.75 L-86.1 -10.9 Q-84.6 -6.9 -84.6 -2.6 L-84.6 -1.7 Q-84.75 3.55 -87.15 8.15 -89.45 12.65 -93.35 15.85 -99.75 20.9 -107.55 20.9 L-118.0 20.9 -118.0 11.4 -106.05 11.4 Q-96.45 11.4 -90.95 4.15 -86.65 -1.7 -86.2 -9.75" fill="#4aa0da" fill-rule="evenodd" stroke="none"/>
    <path d="M-118.0 21.8 L-104.7 21.8 Q-100.35 21.8 -97.55 20.45 -93.1 18.4 -89.8 14.6 -86.65 10.9 -85.2 6.0 L-85.2 6.1 Q-85.75 12.3 -88.25 16.8 -91.05 21.8 -96.65 25.65 -106.3 32.4 -118.0 32.65 L-118.0 21.8" fill="#4aa0da" fill-rule="evenodd" stroke="none"/>
  </g>
</svg>
