<?xml version="1.0" encoding="UTF-8" standalone="no"?>
<svg xmlns:xlink="http://www.w3.org/1999/xlink" height="67.65px" width="82.0px" xmlns="http://www.w3.org/2000/svg">
  <g transform="matrix(1.0, 0.0, 0.0, 1.0, 0.0, 0.0)">
    <path d="M70.05 29.65 Q70.05 32.75 67.85 34.95 65.65 37.15 62.6 37.15 59.5 37.15 57.3 34.95 55.1 32.75 55.1 29.65 55.1 26.55 57.3 24.4 59.5 22.2 62.6 22.2 65.65 22.2 67.85 24.4 70.05 26.55 70.05 29.65" fill="url(#gradient0)" fill-rule="evenodd" stroke="none"/>
    <path d="M36.7 0.4 Q39.4 0.95 41.25 3.15 43.05 5.4 43.05 8.25 43.05 11.1 41.1 13.4 39.0 15.9 35.85 16.05 35.35 13.7 34.05 12.5 32.7 11.25 30.35 11.25 L27.75 11.7 27.75 11.65 Q25.95 12.9 24.9 14.4 23.5 16.5 24.1 18.65 24.7 20.75 27.15 23.35 29.05 25.25 28.8 28.45 28.7 30.0 28.2 31.15 27.5 33.8 25.4 35.45 23.2 37.15 20.4 37.15 17.5 37.15 15.25 35.25 10.75 31.6 12.0 27.35 12.8 24.6 16.4 21.05 21.0 16.6 26.95 5.05 29.25 0.75 33.2 0.1 L36.7 0.4" fill="#932834" fill-rule="evenodd" stroke="none"/>
    <path d="M63.3 3.15 Q65.1 5.4 65.1 8.25 65.1 11.1 63.2 13.4 61.1 15.9 57.9 16.05 56.85 11.25 52.4 11.25 L49.8 11.7 49.8 11.65 Q47.9 12.95 47.0 14.4 45.6 16.5 46.15 18.65 46.7 20.7 49.25 23.35 51.1 25.25 50.85 28.45 L50.25 31.15 Q49.55 33.75 47.45 35.45 45.25 37.15 42.5 37.15 39.55 37.15 37.35 35.25 L37.3 35.25 Q32.85 31.6 34.05 27.35 34.85 24.6 38.45 21.05 43.05 16.6 49.05 5.05 51.25 0.75 55.25 0.1 L58.75 0.4 Q61.5 0.95 63.3 3.15" fill="#932834" fill-rule="evenodd" stroke="none"/>
    <path d="M1.7 44.3 L4.95 51.65 7.95 44.3 9.55 44.3 9.55 55.3 8.0 55.3 8.0 47.75 5.65 53.7 4.0 53.7 1.55 47.9 1.55 55.3 0.0 55.3 0.0 44.3 1.7 44.3" fill="#000000" fill-rule="evenodd" stroke="none"/>
    <path d="M16.9 51.65 L12.2 51.65 12.35 52.65 12.75 53.4 13.4 53.95 14.2 54.1 14.8 54.05 15.2 53.85 15.4 53.55 15.45 53.25 15.45 53.0 16.85 53.0 16.85 53.25 16.5 54.35 15.5 55.2 14.1 55.5 Q12.55 55.5 11.65 54.35 10.85 53.1 10.85 51.35 10.85 49.55 11.75 48.35 12.65 47.2 14.05 47.2 L14.85 47.25 15.5 47.55 16.05 48.05 16.5 48.8 Q16.9 49.65 16.9 51.1 L16.9 51.65 M14.8 48.75 L14.4 48.6 13.95 48.55 Q13.4 48.55 12.9 49.1 L12.55 49.65 12.3 50.35 15.55 50.35 15.35 49.45 14.8 48.75" fill="#000000" fill-rule="evenodd" stroke="none"/>
    <path d="M17.5 47.35 L19.15 47.35 20.6 49.9 22.1 47.35 23.6 47.35 21.3 51.15 23.7 55.3 22.05 55.3 20.5 52.55 18.85 55.3 17.35 55.3 19.75 51.25 17.5 47.35" fill="#000000" fill-rule="evenodd" stroke="none"/>
    <path d="M24.3 46.0 L24.3 44.4 25.7 44.4 25.7 46.0 24.3 46.0 M24.3 47.35 L25.7 47.35 25.7 55.3 24.3 55.3 24.3 47.35" fill="#000000" fill-rule="evenodd" stroke="none"/>
    <path d="M32.4 48.8 L32.5 49.45 32.5 49.65 31.1 49.65 31.1 49.4 30.85 48.8 Q30.55 48.55 29.9 48.55 29.1 48.55 28.6 49.2 28.1 49.8 28.1 51.35 28.1 52.85 28.6 53.45 29.05 54.1 29.9 54.1 L30.45 54.05 30.8 53.85 31.1 53.25 31.1 53.0 32.5 53.0 32.5 53.25 32.4 53.8 32.15 54.35 31.7 54.85 31.2 55.2 29.85 55.5 Q28.3 55.5 27.5 54.35 26.65 53.25 26.65 51.35 26.65 49.4 27.5 48.25 28.3 47.2 29.85 47.2 L31.2 47.45 32.1 48.25 32.4 48.8" fill="#000000" fill-rule="evenodd" stroke="none"/>
    <path d="M39.7 51.35 Q39.7 53.45 38.75 54.45 37.8 55.5 36.4 55.5 35.1 55.5 34.15 54.45 33.15 53.45 33.15 51.35 33.15 49.25 34.15 48.2 35.15 47.2 36.4 47.2 37.8 47.2 38.75 48.2 39.7 49.25 39.7 51.35 M36.4 54.1 Q37.3 54.1 37.75 53.35 38.25 52.65 38.25 51.35 38.25 50.0 37.75 49.25 37.25 48.55 36.4 48.55 L35.7 48.7 35.15 49.25 Q34.9 49.65 34.75 50.2 34.6 50.65 34.6 51.35 34.6 52.0 34.75 52.45 L35.15 53.35 35.7 53.9 36.4 54.1" fill="#000000" fill-rule="evenodd" stroke="none"/>
    <path d="M48.35 45.4 L47.9 45.35 Q46.5 45.35 45.9 46.6 45.2 47.85 45.2 49.8 45.2 51.75 45.9 53.0 46.5 54.2 47.85 54.2 48.75 54.2 49.15 53.8 L49.5 52.9 49.5 52.65 50.9 52.65 50.9 52.9 50.8 53.6 50.5 54.3 50.0 54.9 49.4 55.3 48.65 55.55 47.8 55.65 Q46.0 55.65 44.8 54.15 43.65 52.7 43.65 49.8 43.65 48.35 43.95 47.25 L44.8 45.45 Q45.35 44.7 46.15 44.35 46.85 44.0 47.8 44.0 48.75 44.0 49.4 44.3 50.15 44.65 50.5 45.3 L50.8 46.0 50.9 46.7 50.9 46.9 49.5 46.9 49.45 46.35 49.3 46.0 49.05 45.75 48.75 45.55 48.35 45.4" fill="#000000" fill-rule="evenodd" stroke="none"/>
    <path d="M57.0 49.9 L57.1 54.5 57.25 55.3 55.9 55.3 55.7 54.45 55.15 54.95 54.7 55.3 53.7 55.5 Q52.9 55.5 52.3 54.9 51.7 54.3 51.7 53.25 51.7 52.1 52.55 51.45 52.95 51.1 53.6 50.85 L55.2 50.35 55.65 50.25 55.65 49.55 Q55.65 48.9 55.35 48.7 55.0 48.45 54.45 48.45 53.85 48.45 53.55 48.75 53.25 49.05 53.25 49.45 L53.25 49.7 51.8 49.7 51.8 49.45 Q51.8 48.9 52.2 48.3 L53.15 47.45 54.55 47.15 55.8 47.45 Q56.4 47.65 56.7 48.2 57.0 48.65 57.0 49.9 M55.55 51.55 L54.25 52.0 Q53.65 52.25 53.55 52.4 53.15 52.8 53.15 53.25 L53.25 53.75 53.6 54.1 54.05 54.25 54.45 54.15 54.85 53.95 55.15 53.6 55.45 53.2 55.6 52.65 55.65 51.5 55.6 51.55 55.55 51.55" fill="#000000" fill-rule="evenodd" stroke="none"/>
    <path d="M59.55 51.35 L59.55 55.3 58.25 55.3 58.25 47.35 59.55 47.35 59.55 48.35 60.1 47.7 60.65 47.35 61.35 47.2 62.1 47.35 62.1 49.0 61.55 48.75 61.15 48.7 Q60.65 48.7 60.1 49.25 59.55 49.9 59.55 51.35" fill="#000000" fill-rule="evenodd" stroke="none"/>
    <path d="M63.9 44.0 L63.9 48.35 64.35 47.8 64.7 47.55 Q64.8 47.4 65.05 47.35 L65.45 47.2 65.85 47.2 Q66.65 47.2 67.25 47.65 67.85 48.15 68.2 49.15 L68.45 50.2 68.55 51.3 Q68.55 53.1 67.85 54.3 67.1 55.5 65.8 55.5 L65.0 55.35 64.3 54.9 63.9 54.3 63.9 54.6 63.8 55.1 63.8 55.3 62.5 55.3 62.55 54.2 62.6 44.0 63.9 44.0 M65.55 48.5 L65.15 48.55 64.7 48.8 64.35 49.25 64.1 49.8 63.9 51.35 Q63.9 52.55 64.35 53.35 64.8 54.1 65.55 54.1 66.25 54.1 66.75 53.45 67.2 52.75 67.2 51.35 L67.1 50.0 66.75 49.1 66.2 48.65 65.55 48.5" fill="#000000" fill-rule="evenodd" stroke="none"/>
    <path d="M72.4 48.55 L71.7 48.7 71.15 49.25 70.8 50.2 Q70.65 50.65 70.65 51.35 70.65 52.0 70.8 52.45 L71.15 53.35 71.7 53.9 72.4 54.1 Q73.2 54.1 73.65 53.35 74.15 52.6 74.15 51.35 74.15 50.05 73.65 49.25 73.2 48.55 72.4 48.55 M72.4 47.2 Q73.7 47.2 74.65 48.2 75.55 49.3 75.55 51.35 75.55 53.35 74.65 54.45 73.75 55.5 72.4 55.5 71.15 55.5 70.2 54.45 69.3 53.45 69.3 51.35 69.3 49.25 70.2 48.2 71.15 47.2 72.4 47.2" fill="#000000" fill-rule="evenodd" stroke="none"/>
    <path d="M82.0 50.3 L82.0 55.3 80.7 55.3 80.7 50.85 80.55 49.45 80.2 48.9 79.9 48.7 79.55 48.65 79.15 48.7 78.75 48.95 78.4 49.3 78.1 49.8 77.9 51.4 77.9 55.3 76.55 55.3 76.55 47.35 77.9 47.35 77.9 48.35 78.1 48.05 78.3 47.8 78.65 47.55 Q78.8 47.4 79.0 47.35 L79.85 47.2 80.95 47.45 81.75 48.4 82.0 50.3" fill="#000000" fill-rule="evenodd" stroke="none"/>
    <path d="M20.95 59.75 L20.95 65.85 20.1 65.85 20.1 61.65 18.85 65.0 17.95 65.0 16.6 61.75 16.65 65.85 15.8 65.85 15.8 59.75 16.7 59.75 18.45 63.85 20.05 59.75 20.95 59.75" fill="#000000" fill-rule="evenodd" stroke="none"/>
    <path d="M24.95 61.9 L25.15 62.9 25.15 65.1 25.3 65.85 24.4 65.85 24.3 65.4 23.95 65.65 23.65 65.85 22.95 66.0 22.05 65.65 Q21.65 65.35 21.65 64.75 21.65 64.1 22.2 63.75 22.4 63.55 22.95 63.4 L24.0 63.1 24.3 63.1 24.3 62.65 24.05 62.2 23.5 62.05 Q23.15 62.05 22.85 62.25 L22.7 62.6 22.7 62.75 21.75 62.75 21.75 62.6 22.0 62.0 22.65 61.5 23.5 61.35 24.4 61.5 24.95 61.9 M24.2 63.8 L23.35 64.0 22.85 64.3 Q22.6 64.45 22.6 64.75 L22.7 65.0 22.9 65.2 23.2 65.3 23.5 65.25 23.75 65.1 23.95 64.9 24.15 64.7 24.25 64.4 24.3 63.75 24.2 63.75 24.2 63.8" fill="#000000" fill-rule="evenodd" stroke="none"/>
    <path d="M26.85 62.0 L27.15 61.7 27.35 61.55 27.6 61.45 28.15 61.35 28.85 61.5 29.4 62.0 29.6 63.1 29.6 65.85 28.7 65.85 28.7 63.4 28.65 62.6 28.4 62.3 28.2 62.2 27.95 62.2 27.7 62.2 27.4 62.35 27.2 62.55 27.05 62.85 Q26.85 63.1 26.85 63.7 L26.85 65.85 26.0 65.85 26.0 61.45 26.85 61.45 26.85 62.0" fill="#000000" fill-rule="evenodd" stroke="none"/>
    <path d="M31.25 61.45 L31.25 63.9 Q31.25 64.8 31.4 65.0 L31.7 65.1 31.95 65.15 32.5 65.0 32.7 64.8 32.9 64.5 33.05 63.65 33.05 61.45 33.95 61.45 33.95 65.85 33.05 65.85 33.05 65.3 32.8 65.65 32.3 65.9 31.8 66.0 Q31.25 66.0 30.8 65.65 30.35 65.3 30.35 64.2 L30.35 61.45 31.25 61.45" fill="#000000" fill-rule="evenodd" stroke="none"/>
    <path d="M37.3 59.65 L37.3 60.4 36.75 60.35 Q36.45 60.35 36.25 60.5 L36.05 61.2 36.05 61.45 37.25 61.45 37.25 62.25 36.05 62.25 36.05 65.85 35.15 65.85 35.15 62.25 34.55 62.25 34.55 61.45 35.15 61.45 35.15 61.35 Q35.15 60.4 35.6 60.0 35.95 59.6 36.6 59.6 L36.9 59.6 37.3 59.65" fill="#000000" fill-rule="evenodd" stroke="none"/>
    <path d="M40.8 61.9 L41.0 62.9 41.05 65.4 41.15 65.85 40.25 65.85 40.15 65.4 39.8 65.65 39.5 65.85 38.8 66.0 37.9 65.65 Q37.5 65.35 37.5 64.75 37.5 64.1 38.05 63.75 L38.8 63.4 39.8 63.1 40.15 63.1 40.15 62.65 39.9 62.2 39.35 62.05 38.7 62.25 38.5 62.6 38.5 62.75 37.6 62.75 37.6 62.6 37.85 62.0 38.5 61.5 39.35 61.35 40.25 61.5 40.8 61.9 M39.2 64.0 L38.7 64.3 Q38.45 64.45 38.45 64.75 L38.5 65.0 38.75 65.2 39.05 65.3 39.35 65.25 39.6 65.1 39.8 64.9 39.95 64.7 40.1 64.4 40.15 63.75 40.05 63.75 40.05 63.8 39.2 64.0" fill="#000000" fill-rule="evenodd" stroke="none"/>
    <path d="M45.05 61.95 L45.25 62.25 45.3 62.6 45.3 62.75 44.45 62.75 44.45 62.6 44.25 62.3 43.7 62.1 Q43.2 62.1 42.85 62.45 42.5 62.85 42.5 63.65 42.5 64.45 42.85 64.85 43.2 65.2 43.7 65.2 L44.0 65.2 44.25 65.05 44.45 64.75 44.45 64.6 45.3 64.6 45.3 64.75 45.25 65.05 45.05 65.35 44.8 65.6 44.5 65.85 43.6 66.0 Q42.7 66.0 42.15 65.35 41.6 64.75 41.6 63.65 41.6 62.65 42.15 61.95 42.7 61.35 43.6 61.35 L44.5 61.5 45.05 61.95" fill="#000000" fill-rule="evenodd" stroke="none"/>
    <path d="M48.45 61.45 L48.45 62.25 47.25 62.25 47.25 64.55 47.3 64.85 47.55 65.1 47.95 65.2 48.65 65.05 48.65 65.85 48.15 65.95 47.8 66.0 47.05 65.8 Q46.7 65.65 46.5 65.3 46.35 64.9 46.35 64.3 L46.35 62.25 45.65 62.25 45.65 61.45 46.35 61.45 46.35 60.45 47.25 60.45 47.25 61.45 48.45 61.45" fill="#000000" fill-rule="evenodd" stroke="none"/>
    <path d="M50.05 61.45 L50.05 63.9 Q50.05 64.8 50.25 65.0 L50.5 65.1 50.8 65.15 51.35 65.0 51.55 64.8 51.7 64.5 51.9 63.65 51.9 61.45 52.75 61.45 52.75 65.85 51.9 65.85 51.9 65.3 51.75 65.5 51.6 65.65 51.15 65.9 50.65 66.0 Q50.05 66.0 49.6 65.65 49.15 65.3 49.15 64.2 L49.15 61.45 50.05 61.45" fill="#000000" fill-rule="evenodd" stroke="none"/>
    <path d="M56.15 61.45 L56.15 62.4 55.8 62.25 55.55 62.2 Q55.15 62.2 54.8 62.55 54.5 62.85 54.5 63.7 L54.5 65.85 53.6 65.85 53.6 61.45 54.5 61.45 54.5 62.0 54.8 61.65 55.15 61.45 55.7 61.35 56.15 61.45" fill="#000000" fill-rule="evenodd" stroke="none"/>
    <path d="M56.45 60.7 L56.45 59.85 57.3 59.85 57.3 60.7 56.45 60.7 M57.3 61.45 L57.3 65.85 56.45 65.85 56.45 61.45 57.3 61.45" fill="#000000" fill-rule="evenodd" stroke="none"/>
    <path d="M59.25 61.7 L59.45 61.55 59.7 61.45 60.25 61.35 61.0 61.5 61.5 62.0 61.7 63.1 61.7 65.85 60.8 65.85 60.8 63.4 60.75 62.6 60.5 62.3 60.3 62.2 60.1 62.2 59.8 62.2 59.55 62.35 59.3 62.55 59.15 62.85 Q59.0 63.1 59.0 63.7 L59.0 65.85 58.1 65.85 58.1 61.45 59.0 61.45 59.0 62.0 59.25 61.7" fill="#000000" fill-rule="evenodd" stroke="none"/>
    <path d="M65.35 61.95 L65.35 61.45 66.25 61.45 66.25 65.0 Q66.25 66.35 65.95 66.75 L65.65 67.15 65.25 67.4 64.75 67.55 64.25 67.65 63.7 67.55 63.25 67.45 Q62.85 67.3 62.65 67.0 L62.4 66.4 62.4 66.25 63.25 66.25 63.25 66.4 63.55 66.75 63.8 66.85 64.25 66.95 64.8 66.8 65.2 66.4 65.35 65.4 65.35 65.2 64.8 65.7 64.1 65.85 Q63.3 65.85 62.8 65.25 62.3 64.65 62.3 63.65 62.3 62.9 62.55 62.45 62.8 61.85 63.2 61.65 L63.65 61.4 64.15 61.35 64.9 61.5 65.35 61.95 M65.05 62.5 Q64.7 62.1 64.3 62.1 63.8 62.1 63.55 62.5 63.2 62.85 63.2 63.65 63.2 64.15 63.35 64.45 L63.7 64.95 64.25 65.1 Q64.75 65.1 65.05 64.7 L65.35 63.55 65.05 62.5" fill="#000000" fill-rule="evenodd" stroke="none"/>
  </g>
  <defs>
    <radialGradient cx="0" cy="0" gradientTransform="matrix(0.0086, 0.0, 0.0, -0.0086, 62.6, 29.65)" gradientUnits="userSpaceOnUse" id="gradient0" r="819.2" spreadMethod="pad">
      <stop offset="0.0" stop-color="#ffffff"/>
      <stop offset="1.0" stop-color="#000000"/>
    </radialGradient>
  </defs>
</svg>
