<?xml version="1.0" encoding="UTF-8" standalone="no"?>
<svg xmlns:xlink="http://www.w3.org/1999/xlink" height="54.1px" width="81.65px" xmlns="http://www.w3.org/2000/svg">
  <g transform="matrix(1.0, 0.0, 0.0, 1.0, 0.0, 0.0)">
    <path d="M81.65 53.9 L81.5 54.0 80.85 54.0 80.75 53.95 80.75 53.85 80.7 53.75 80.7 49.95 80.75 49.8 80.8 49.75 81.55 49.75 81.6 49.8 81.65 50.05 81.65 53.9 M43.6 28.3 L43.85 28.65 42.7 28.65 43.6 28.3 M41.3 26.4 L41.7 26.15 42.55 27.15 42.25 27.3 41.95 27.4 41.4 27.25 Q41.15 27.1 41.15 26.75 L41.3 26.4 M42.85 23.4 L43.0 23.7 42.85 24.1 42.3 24.55 41.9 24.1 41.8 23.7 41.85 23.55 41.95 23.4 42.15 23.25 42.4 23.25 42.85 23.4 M45.8 15.35 Q47.25 14.7 49.6 14.7 52.6 14.7 54.5 16.05 55.8 17.0 56.1 18.1 54.45 18.85 52.75 19.55 52.15 17.75 49.5 17.75 48.05 17.75 47.25 18.7 46.4 19.7 46.4 21.85 46.4 24.1 47.25 25.1 48.1 26.05 49.6 26.05 51.7 26.05 52.3 24.95 52.6 24.35 52.5 23.8 L49.6 23.8 49.6 21.15 56.8 21.15 56.8 22.35 Q56.75 23.9 56.25 25.1 54.7 29.1 49.4 29.1 47.35 29.1 45.95 28.55 L45.0 27.45 45.85 26.8 44.8 25.6 44.0 26.3 43.25 25.5 43.8 25.15 44.2 24.8 44.55 24.3 44.65 23.8 44.45 23.1 43.95 22.5 43.2 22.15 42.3 22.05 41.45 22.15 40.75 22.5 40.25 23.05 Q40.1 23.4 40.1 23.75 40.1 24.1 40.25 24.45 L40.7 25.05 Q40.15 25.3 39.7 25.75 39.35 26.2 39.35 26.8 L39.55 27.55 40.1 28.2 40.85 28.65 38.85 28.65 38.2 21.25 38.1 21.25 37.9 21.9 37.75 22.55 35.7 28.65 32.7 28.65 30.7 22.05 30.55 21.25 30.4 21.25 29.65 28.65 24.7 28.65 27.0 15.1 32.25 15.1 34.2 22.2 34.35 22.2 34.5 21.3 36.3 15.1 41.5 15.1 42.3 19.75 43.0 17.9 Q43.95 16.25 45.8 15.35 M39.25 50.35 L38.8 50.4 38.6 50.55 38.5 50.8 38.5 50.9 38.5 50.95 38.65 51.15 38.85 51.25 39.0 51.3 39.15 51.3 39.8 51.5 39.9 51.5 39.95 51.55 40.2 51.6 40.4 51.7 40.9 52.15 41.0 52.4 41.0 52.45 41.05 52.7 41.05 52.85 41.0 53.1 40.8 53.5 40.65 53.65 40.55 53.7 40.45 53.8 40.25 53.9 39.8 54.05 39.55 54.05 39.5 54.1 39.45 54.1 39.4 54.05 39.4 54.1 39.1 54.1 39.05 54.05 38.85 54.05 38.55 54.0 38.05 53.75 37.65 53.35 37.5 53.0 37.5 52.85 37.45 52.75 37.5 52.65 37.55 52.6 38.3 52.6 38.35 52.7 38.4 52.85 38.55 53.1 38.65 53.2 Q38.7 53.2 39.0 53.35 L39.1 53.35 39.15 53.4 39.45 53.4 39.5 53.35 39.65 53.35 39.95 53.2 40.15 52.9 40.15 52.8 40.1 52.7 39.9 52.5 39.85 52.45 38.85 52.1 38.75 52.1 38.1 51.85 37.85 51.65 37.7 51.35 37.65 51.25 37.6 50.95 37.6 50.75 37.65 50.5 37.9 50.15 38.25 49.85 38.5 49.75 38.9 49.65 39.15 49.65 Q40.3 49.65 40.7 50.3 L40.8 50.55 40.9 50.75 40.9 50.85 40.85 50.95 40.8 51.0 40.1 51.0 40.0 50.9 39.95 50.75 39.8 50.55 39.6 50.4 39.45 50.35 39.25 50.35 M36.25 50.0 L36.65 50.35 36.95 50.95 37.1 51.35 37.1 51.55 37.15 51.6 37.15 52.15 37.1 52.3 37.1 52.45 36.95 52.85 36.45 53.55 35.7 54.0 35.45 54.05 35.35 54.05 35.1 54.1 35.05 54.1 34.95 54.05 34.7 54.05 34.4 54.0 34.15 53.9 33.55 53.5 33.1 52.85 33.0 52.5 33.0 52.3 32.95 52.2 32.95 52.05 32.95 51.95 32.95 51.8 32.95 51.75 32.95 51.5 33.0 51.45 33.0 51.35 33.15 50.75 33.25 50.6 33.7 50.1 34.25 49.75 34.45 49.7 34.6 49.7 34.65 49.65 34.95 49.65 35.7 49.75 36.25 50.0 M36.05 51.1 L35.7 50.6 35.0 50.4 34.85 50.4 34.7 50.45 34.6 50.5 34.2 50.8 33.95 51.25 33.9 51.35 33.9 51.75 33.85 51.85 33.85 52.0 33.9 52.05 33.9 52.35 33.95 52.5 34.1 52.8 34.35 53.1 34.65 53.25 34.8 53.3 35.2 53.3 35.45 53.25 35.85 53.0 36.1 52.55 36.1 52.45 36.2 52.25 36.2 51.5 36.15 51.45 36.15 51.35 36.05 51.1 M32.3 49.9 L32.3 53.85 32.25 53.95 32.15 54.0 31.6 54.0 31.5 53.95 31.4 53.85 31.4 51.3 31.35 51.25 31.3 51.25 31.3 51.3 31.0 52.2 30.95 52.25 30.95 52.3 30.85 52.55 30.85 52.65 30.55 53.45 30.5 53.5 30.5 53.55 30.4 53.9 30.35 53.95 30.3 53.95 30.2 54.0 29.75 54.0 29.65 53.95 29.6 53.9 29.45 53.5 29.45 53.45 29.35 53.15 29.35 53.05 29.25 52.85 29.25 52.8 28.75 51.45 28.65 51.3 28.65 51.25 28.6 51.25 28.6 51.45 28.55 51.5 28.55 53.9 28.35 54.0 27.85 54.0 27.75 53.95 27.7 53.85 27.7 49.8 27.8 49.75 28.85 49.75 29.0 49.8 29.05 49.85 29.1 49.95 29.15 50.15 29.95 52.4 29.95 52.45 30.0 52.5 30.05 52.5 30.1 52.45 30.9 49.95 31.0 49.75 32.2 49.75 32.3 49.9 M25.4 51.7 L25.45 51.85 25.4 51.95 25.4 52.4 25.25 52.85 24.75 53.55 24.0 54.0 23.75 54.05 23.6 54.05 23.4 54.1 23.35 54.1 23.25 54.05 22.95 54.05 22.45 53.9 21.8 53.5 21.45 52.85 21.35 52.7 21.3 52.5 21.3 52.4 21.25 52.2 21.25 51.95 21.2 51.9 21.25 51.8 21.25 51.35 21.4 50.95 21.6 50.6 22.0 50.1 22.55 49.75 22.7 49.7 22.9 49.7 22.95 49.65 23.25 49.65 24.0 49.75 Q24.25 49.8 24.55 50.0 L24.85 50.25 24.95 50.35 25.2 50.8 25.35 51.25 25.4 51.35 25.4 51.7 M23.1 50.4 L22.9 50.5 22.5 50.8 22.25 51.25 22.2 51.5 22.15 51.55 22.15 52.2 22.25 52.5 22.4 52.8 22.65 53.1 22.7 53.15 22.8 53.15 22.9 53.25 23.05 53.3 23.5 53.3 23.75 53.25 24.1 53.0 24.4 52.55 24.45 52.45 24.5 52.1 24.5 51.6 24.45 51.45 24.45 51.35 24.4 51.2 24.35 51.1 23.95 50.6 Q23.7 50.4 23.3 50.4 L23.1 50.4 M20.7 50.25 L20.9 50.7 20.95 51.25 20.9 51.5 20.8 51.7 20.8 51.8 20.7 51.95 20.4 52.2 20.0 52.4 19.75 52.45 18.7 52.45 18.5 52.5 18.45 52.65 18.45 53.9 18.35 54.0 17.7 54.0 17.6 53.95 17.55 53.85 17.55 49.8 17.65 49.75 19.85 49.75 19.9 49.8 20.3 49.9 20.4 50.0 20.55 50.1 20.6 50.1 20.7 50.25 M19.75 50.55 L19.55 50.45 18.55 50.45 18.45 50.65 18.45 51.55 18.5 51.65 18.55 51.7 18.7 51.75 19.5 51.7 Q19.8 51.7 19.9 51.5 L20.0 51.35 20.05 51.25 20.05 51.05 19.95 50.7 19.75 50.55 M16.85 50.7 L16.85 51.25 16.85 51.5 16.7 51.8 16.65 51.85 16.6 51.95 16.3 52.2 15.95 52.4 15.65 52.45 14.6 52.45 14.45 52.5 14.4 52.65 14.4 53.9 14.3 54.0 13.6 54.0 13.55 53.95 13.5 53.85 13.5 49.8 13.6 49.75 15.8 49.75 15.85 49.8 16.25 49.9 16.35 50.0 16.5 50.1 16.85 50.7 M15.7 50.55 L15.45 50.45 14.5 50.45 14.4 50.65 14.4 51.55 14.45 51.65 14.5 51.7 14.6 51.75 15.45 51.7 Q15.65 51.7 15.85 51.5 L15.95 51.25 16.0 51.05 15.95 50.9 15.85 50.7 15.7 50.55 M12.75 49.9 L12.75 52.55 12.7 52.9 12.5 53.4 12.1 53.75 11.7 53.95 11.5 54.0 11.4 54.05 11.0 54.05 10.05 53.95 9.4 53.45 9.25 53.2 9.2 53.0 9.15 52.95 9.15 52.9 9.1 52.5 9.1 49.9 9.15 49.8 9.2 49.75 9.9 49.75 10.0 49.8 10.05 49.9 10.05 52.7 10.1 52.85 10.25 53.1 10.55 53.25 10.75 53.3 11.1 53.3 11.3 53.25 11.6 53.1 11.75 52.9 11.8 52.55 11.8 49.95 11.85 49.8 11.95 49.75 12.6 49.75 12.7 49.8 12.75 49.9 M7.75 49.85 L8.0 50.0 8.25 50.2 8.25 50.25 8.3 50.35 8.4 50.7 8.45 50.75 8.45 50.95 8.4 51.1 8.4 51.15 8.35 51.45 8.25 51.6 7.9 51.95 7.9 52.0 8.15 52.25 8.3 52.5 8.35 52.7 8.35 52.85 8.4 52.95 8.4 53.55 8.5 53.85 8.5 53.95 8.35 54.0 7.9 54.0 7.75 53.95 7.65 53.9 7.55 53.5 7.55 53.4 7.5 53.3 7.5 52.95 7.35 52.55 7.15 52.4 7.1 52.4 7.05 52.35 6.8 52.3 5.95 52.3 5.9 52.4 5.85 52.55 5.85 53.9 5.65 54.0 5.1 54.0 4.95 53.95 4.9 53.85 4.9 49.9 4.95 49.8 5.05 49.75 7.5 49.75 7.6 49.8 7.75 49.85 M7.45 50.8 L7.2 50.5 7.0 50.45 5.95 50.45 5.85 50.5 5.85 51.5 5.9 51.6 6.05 51.65 7.1 51.65 7.3 51.55 7.4 51.45 7.5 51.15 7.5 50.85 7.45 50.8 M2.7 50.55 L2.4 50.4 1.85 50.4 1.7 50.45 1.45 50.65 1.25 50.85 1.1 51.1 0.95 51.65 0.95 52.05 1.0 52.25 1.0 52.35 1.25 52.85 1.65 53.2 1.75 53.25 1.9 53.3 2.4 53.3 2.7 53.15 2.95 52.95 3.1 52.7 3.15 52.55 3.1 52.4 2.35 52.4 2.3 52.35 2.25 52.35 2.2 52.15 2.2 51.85 2.25 51.75 2.3 51.7 3.8 51.7 3.95 51.75 4.0 51.85 4.0 53.8 3.9 53.95 3.5 53.95 3.4 53.85 3.3 53.65 3.3 53.6 3.25 53.6 3.1 53.7 3.0 53.8 2.45 54.05 1.7 54.05 1.15 53.85 0.6 53.4 0.2 52.8 0.1 52.45 0.1 52.4 0.05 52.35 0.05 51.95 0.0 51.85 0.05 51.8 0.05 51.35 0.25 50.8 0.45 50.45 0.85 50.05 1.4 49.75 1.7 49.65 2.05 49.65 3.05 49.85 3.7 50.4 3.9 50.85 3.9 51.05 3.8 51.1 3.1 51.1 3.0 51.0 2.95 50.85 2.7 50.55 M80.1 50.45 L79.95 50.55 79.75 50.5 78.35 50.5 78.15 50.55 78.1 50.65 78.1 51.45 78.15 51.5 79.75 51.5 79.8 51.55 79.9 51.7 79.85 51.9 79.9 52.0 79.8 52.2 78.25 52.2 78.1 52.3 78.1 53.75 78.05 53.95 77.95 54.0 77.3 54.0 77.2 53.95 77.15 53.85 77.15 49.95 77.2 49.8 77.25 49.75 80.0 49.75 80.1 49.8 80.15 49.85 80.15 50.35 80.1 50.45 M76.55 54.0 L73.95 54.0 73.8 53.95 73.7 53.9 73.7 49.8 73.8 49.75 74.5 49.75 74.6 49.8 74.6 52.85 74.65 52.9 74.65 53.1 74.8 53.2 76.6 53.2 76.65 53.25 76.7 53.35 76.7 53.9 76.65 53.95 76.55 54.0 M72.85 50.95 L72.95 51.35 72.95 51.6 73.0 51.65 73.0 52.05 72.95 52.15 72.95 52.45 72.8 52.85 72.35 53.55 71.55 54.0 71.3 54.05 71.15 54.05 71.0 54.1 70.9 54.1 70.8 54.05 70.55 54.05 70.25 54.0 70.0 53.9 69.4 53.5 69.0 52.85 68.9 52.5 68.85 52.45 68.85 52.15 68.8 52.1 68.8 51.65 68.85 51.55 68.85 51.45 69.05 50.75 69.15 50.6 69.55 50.1 Q69.7 49.95 70.1 49.75 L70.3 49.7 70.45 49.7 70.55 49.65 70.8 49.65 71.55 49.75 72.1 50.0 72.55 50.35 72.85 50.95 M71.95 51.2 L71.9 51.1 71.55 50.6 70.85 50.4 70.7 50.4 70.6 50.45 70.45 50.5 70.05 50.8 69.8 51.25 69.75 51.5 69.75 52.2 69.8 52.5 70.0 52.8 70.2 53.1 70.25 53.15 70.35 53.15 70.5 53.25 70.65 53.3 71.05 53.3 71.3 53.25 71.7 53.0 71.95 52.55 72.05 52.25 72.05 51.5 71.95 51.2 M68.35 50.85 L68.3 50.95 68.25 51.0 67.55 51.0 67.45 50.9 67.35 50.65 67.1 50.4 66.9 50.35 66.7 50.35 66.3 50.4 Q66.2 50.5 66.05 50.55 L65.95 50.8 65.95 50.9 66.0 50.95 66.1 51.15 66.45 51.3 66.6 51.3 67.25 51.5 67.3 51.5 67.85 51.7 68.15 51.9 68.35 52.15 68.45 52.4 68.45 52.45 68.5 52.45 68.5 52.85 68.45 53.1 68.25 53.5 68.1 53.65 67.95 53.75 67.9 53.8 67.3 54.05 67.05 54.05 66.95 54.1 66.9 54.1 66.85 54.05 66.85 54.1 66.55 54.1 66.5 54.05 66.3 54.05 66.0 54.0 65.5 53.75 65.1 53.35 64.95 52.85 64.95 52.65 65.05 52.6 65.75 52.6 65.8 52.7 65.9 52.95 66.0 53.1 66.15 53.2 66.45 53.35 66.5 53.35 66.65 53.4 66.9 53.4 67.0 53.35 67.1 53.35 67.4 53.2 67.6 52.9 67.6 52.7 67.35 52.5 67.3 52.45 66.35 52.1 66.25 52.1 66.05 52.05 65.55 51.85 65.3 51.65 65.15 51.35 65.05 50.95 65.05 50.75 65.1 50.6 65.15 50.5 65.35 50.15 65.7 49.85 65.95 49.75 66.35 49.65 66.55 49.65 Q67.75 49.65 68.15 50.3 L68.35 50.75 68.35 50.85 M63.45 49.75 L64.15 49.75 64.25 49.8 64.25 53.6 64.3 53.8 64.25 53.9 64.15 54.0 63.5 54.0 63.4 53.95 63.35 53.85 63.35 49.8 63.45 49.75 M62.65 49.8 L62.7 49.85 62.7 53.85 62.65 53.95 62.5 54.0 62.0 54.0 61.85 53.95 61.8 53.95 61.75 53.85 61.75 53.75 61.75 53.6 61.75 52.2 61.6 52.15 60.1 52.15 60.05 52.2 60.0 52.3 60.0 53.95 59.9 53.95 59.8 54.0 59.35 54.0 59.15 53.95 59.1 53.85 59.1 49.8 59.2 49.75 59.9 49.75 60.0 49.85 60.0 51.1 60.05 51.3 60.1 51.35 61.6 51.35 61.75 51.3 61.75 49.95 61.8 49.8 61.85 49.75 62.5 49.75 62.65 49.8 M57.95 50.4 L58.15 50.85 58.15 51.05 58.05 51.1 57.3 51.1 57.2 50.85 56.95 50.55 56.7 50.4 56.15 50.4 56.0 50.45 55.7 50.65 55.5 50.85 55.35 51.1 55.25 51.65 55.25 52.3 55.3 52.35 55.5 52.85 55.95 53.2 56.15 53.3 56.7 53.3 56.95 53.15 57.2 52.95 57.35 52.7 57.4 52.55 57.3 52.4 56.65 52.4 56.6 52.35 56.55 52.35 56.5 52.25 56.5 51.75 56.55 51.7 58.05 51.7 58.2 51.75 58.25 51.85 58.25 53.8 58.15 53.95 57.8 53.95 57.65 53.85 57.65 53.75 57.6 53.65 57.55 53.6 57.5 53.6 57.35 53.7 57.25 53.8 56.7 54.05 56.0 54.05 55.4 53.85 54.85 53.4 54.45 52.8 54.35 52.45 54.35 52.25 54.3 52.15 54.3 51.55 54.35 51.45 54.35 51.2 54.5 50.8 54.7 50.45 55.1 50.05 Q55.35 49.85 55.7 49.75 L55.8 49.7 55.95 49.65 56.3 49.65 57.3 49.85 Q57.7 50.05 57.95 50.4 M51.4 50.95 L51.3 51.2 51.15 51.45 50.95 51.65 50.85 51.7 50.8 51.7 50.75 51.75 50.75 51.8 50.8 51.9 50.8 51.95 50.85 52.0 51.1 52.3 51.2 52.35 51.25 52.35 51.35 52.15 51.35 52.1 51.4 52.0 51.55 51.95 52.0 51.95 52.1 52.0 52.1 52.15 52.05 52.35 52.05 52.45 51.95 52.6 51.85 52.8 51.8 52.9 51.75 53.0 51.85 53.15 51.95 53.25 52.1 53.45 52.3 53.65 52.4 53.8 52.45 53.9 52.45 53.95 52.35 54.0 51.65 54.0 51.5 53.95 51.4 53.8 51.25 53.65 51.15 53.65 51.1 53.7 51.05 53.7 50.95 53.8 50.85 53.85 50.45 54.0 50.35 54.0 50.3 54.05 49.85 54.05 49.45 54.0 49.1 53.8 48.85 53.6 48.75 53.4 48.7 53.35 48.6 52.85 48.6 52.75 48.65 52.7 48.65 52.5 48.85 52.1 49.15 51.85 49.4 51.7 49.5 51.55 49.5 51.45 49.4 51.35 49.2 50.95 49.2 50.4 49.45 50.0 49.85 49.75 50.1 49.7 50.25 49.7 50.9 49.8 51.3 50.15 51.35 50.3 51.45 50.6 51.4 50.95 M50.7 50.55 L50.45 50.25 50.25 50.25 50.2 50.3 49.95 50.55 49.95 50.85 50.15 51.1 50.2 51.15 50.3 51.2 50.5 51.1 50.7 50.8 50.7 50.55 M50.7 52.95 L50.4 52.55 50.35 52.55 50.3 52.45 50.2 52.3 50.1 52.2 49.95 52.15 49.85 52.2 49.8 52.2 49.6 52.4 49.45 52.7 49.45 53.0 49.85 53.35 50.05 53.4 50.2 53.4 50.45 53.3 50.7 53.05 50.7 52.95 M46.45 50.05 L46.45 53.9 46.3 54.0 45.65 54.0 45.55 53.95 45.55 50.15 45.5 49.95 45.55 49.8 45.6 49.75 46.35 49.75 46.4 49.8 46.45 50.05 M44.7 51.0 L44.0 51.0 43.9 50.9 43.85 50.75 43.7 50.55 43.5 50.4 43.35 50.35 43.15 50.35 42.75 50.4 42.5 50.55 42.4 50.8 42.4 50.95 42.55 51.15 42.9 51.3 43.05 51.3 43.7 51.5 43.8 51.5 43.85 51.55 44.1 51.6 44.3 51.7 44.6 51.9 44.8 52.15 44.9 52.4 44.9 52.45 44.95 52.7 44.95 52.85 44.9 53.1 44.7 53.5 44.65 53.55 44.65 53.6 44.55 53.65 44.5 53.7 44.4 53.75 44.35 53.8 44.15 53.9 43.75 54.05 43.45 54.05 43.4 54.1 43.35 54.1 43.3 54.05 43.3 54.1 43.0 54.1 42.95 54.05 42.75 54.05 42.45 54.0 41.95 53.75 41.55 53.35 41.4 53.0 41.4 52.95 41.35 52.75 41.4 52.65 41.5 52.6 42.2 52.6 42.25 52.7 42.35 52.95 42.45 53.1 42.55 53.2 42.9 53.35 43.0 53.35 43.05 53.4 43.35 53.4 43.4 53.35 43.55 53.35 43.9 53.2 44.05 52.9 44.05 52.8 44.0 52.7 43.8 52.5 43.75 52.45 43.35 52.25 42.8 52.1 42.6 52.1 42.25 51.95 42.05 51.85 41.8 51.65 41.6 51.35 41.55 51.25 41.5 51.1 41.5 50.75 41.55 50.6 41.6 50.5 Q41.65 50.25 41.85 50.15 L42.15 49.85 42.4 49.75 42.8 49.65 43.05 49.65 Q44.2 49.65 44.65 50.3 L44.75 50.55 44.8 50.75 44.8 50.85 44.75 50.95 44.7 51.0" fill="#000000" fill-rule="evenodd" stroke="none"/>
    <path d="M9.5 44.65 L9.0 43.6 31.5 43.6 32.8 44.65 9.5 44.65" fill="#fb0016" fill-rule="evenodd" stroke="none"/>
    <path d="M7.4 37.95 L7.25 36.9 25.8 36.9 26.5 37.95 7.4 37.95" fill="#fb0016" fill-rule="evenodd" stroke="none"/>
    <path d="M7.05 34.7 L7.0 33.65 24.15 33.65 24.65 34.7 7.05 34.7" fill="#fb0016" fill-rule="evenodd" stroke="none"/>
    <path d="M7.0 31.7 L6.95 31.35 7.0 30.7 23.05 30.7 23.4 31.7 7.0 31.7" fill="#fb0016" fill-rule="evenodd" stroke="none"/>
    <path d="M7.1 28.9 L7.2 27.7 22.35 27.7 22.6 28.9 7.1 28.9" fill="#fb0016" fill-rule="evenodd" stroke="none"/>
    <path d="M7.45 26.2 L7.85 24.35 21.9 24.35 22.05 26.2 7.45 26.2" fill="#fb0016" fill-rule="evenodd" stroke="none"/>
    <path d="M21.85 20.75 L21.85 23.0 8.2 23.0 9.0 20.75 21.85 20.75" fill="#fb0016" fill-rule="evenodd" stroke="none"/>
    <path d="M22.25 17.35 L21.95 19.6 9.5 19.6 10.65 17.35 22.25 17.35" fill="#fb0016" fill-rule="evenodd" stroke="none"/>
    <path d="M24.0 13.9 L22.85 16.15 11.35 16.15 12.75 13.9 24.0 13.9" fill="#fb0016" fill-rule="evenodd" stroke="none"/>
    <path d="M15.75 10.2 L26.95 10.2 Q25.55 11.45 24.55 13.0 L13.35 13.0 Q14.35 11.6 15.75 10.2" fill="#fb0016" fill-rule="evenodd" stroke="none"/>
    <path d="M32.3 6.5 Q29.8 7.65 27.75 9.4 L16.5 9.4 Q18.25 7.8 20.15 6.5 L32.3 6.5" fill="#fb0016" fill-rule="evenodd" stroke="none"/>
    <path d="M8.2 41.2 L7.95 40.25 28.2 40.25 29.05 41.2 8.2 41.2" fill="#fb0016" fill-rule="evenodd" stroke="none"/>
    <path d="M52.95 9.4 L53.0 9.55 52.85 9.9 52.55 10.05 52.3 9.95 52.2 9.8 Q49.4 7.3 46.3 6.0 44.1 5.05 41.95 4.85 L42.25 4.85 41.85 4.8 41.95 4.85 40.45 4.75 35.9 5.3 33.4 6.05 20.8 6.05 Q27.5 1.85 35.05 1.85 41.75 1.85 47.65 5.3 50.65 7.0 52.7 9.2 L52.95 9.4" fill="#fb0016" fill-rule="evenodd" stroke="none"/>
    <path d="M71.3 0.0 L71.75 1.05 49.3 1.05 48.0 0.0 71.3 0.0" fill="#fb0016" fill-rule="evenodd" stroke="none"/>
    <path d="M73.35 6.7 L73.55 7.75 54.95 7.75 54.3 6.7 73.35 6.7" fill="#fb0016" fill-rule="evenodd" stroke="none"/>
    <path d="M73.75 9.95 L73.8 11.0 56.65 11.0 56.15 9.95 73.75 9.95" fill="#fb0016" fill-rule="evenodd" stroke="none"/>
    <path d="M57.7 13.95 L57.35 12.95 73.8 12.95 73.8 13.95 57.7 13.95" fill="#fb0016" fill-rule="evenodd" stroke="none"/>
    <path d="M73.55 16.95 L58.45 16.95 58.2 15.75 73.7 15.75 73.55 16.95" fill="#fb0016" fill-rule="evenodd" stroke="none"/>
    <path d="M58.9 20.3 L58.7 18.5 73.35 18.5 72.95 20.3 58.9 20.3" fill="#fb0016" fill-rule="evenodd" stroke="none"/>
    <path d="M58.9 23.9 L58.95 21.65 72.55 21.65 71.75 23.9 58.9 23.9" fill="#fb0016" fill-rule="evenodd" stroke="none"/>
    <path d="M71.3 25.05 L70.1 27.3 58.55 27.3 58.85 25.05 71.3 25.05" fill="#fb0016" fill-rule="evenodd" stroke="none"/>
    <path d="M57.9 28.5 L69.45 28.5 68.05 30.75 56.8 30.75 57.9 28.5" fill="#fb0016" fill-rule="evenodd" stroke="none"/>
    <path d="M53.85 34.5 L56.2 31.65 67.4 31.65 65.05 34.5 53.85 34.5" fill="#fb0016" fill-rule="evenodd" stroke="none"/>
    <path d="M48.45 38.15 Q51.0 37.0 53.05 35.25 L64.25 35.25 60.65 38.15 48.45 38.15" fill="#fb0016" fill-rule="evenodd" stroke="none"/>
    <path d="M72.6 3.45 L72.8 4.45 52.55 4.45 51.7 3.45 72.6 3.45" fill="#fb0016" fill-rule="evenodd" stroke="none"/>
    <path d="M40.3 39.9 L44.85 39.35 47.4 38.6 59.95 38.6 Q57.1 40.4 54.35 41.4 50.25 42.85 45.75 42.85 39.05 42.85 33.1 39.4 30.3 37.75 28.05 35.5 L27.8 35.25 27.85 35.25 27.8 35.1 27.95 34.75 28.25 34.65 28.5 34.7 28.6 34.85 Q31.35 37.35 34.5 38.7 36.6 39.6 38.7 39.85 L40.3 39.9" fill="#fb0016" fill-rule="evenodd" stroke="none"/>
  </g>
</svg>
