<?xml version="1.0" encoding="UTF-8" standalone="no"?>
<svg xmlns:xlink="http://www.w3.org/1999/xlink" height="45.5px" width="81.65px" xmlns="http://www.w3.org/2000/svg">
  <g transform="matrix(1.0, 0.0, 0.0, 1.0, 0.0, 0.0)">
    <path d="M0.0 10.15 L9.85 0.0 19.7 10.15 19.7 35.35 9.85 45.5 0.0 35.35 0.0 10.15 M9.85 3.35 L2.1 11.75 2.1 33.8 9.85 42.3 17.55 33.8 17.55 11.75 9.85 3.35" fill="#323465" fill-rule="evenodd" stroke="none"/>
    <path d="M30.0 14.75 L9.85 14.75 9.85 12.65 30.0 12.65 30.0 14.75" fill="#323465" fill-rule="evenodd" stroke="none"/>
    <path d="M15.7 16.05 L15.7 32.9 13.8 32.9 13.8 16.05 15.7 16.05" fill="#323465" fill-rule="evenodd" stroke="none"/>
    <path d="M30.7 26.15 L30.7 28.3 26.35 28.3 26.35 30.8 34.25 30.8 34.25 32.9 24.3 32.9 24.3 21.1 34.25 21.1 34.25 23.3 26.35 23.3 26.35 26.15 30.7 26.15" fill="#323465" fill-rule="evenodd" stroke="none"/>
    <path d="M67.1 21.1 L67.1 23.3 59.2 23.3 59.2 26.15 63.55 26.15 63.55 28.3 59.2 28.3 59.2 30.8 67.1 30.8 67.1 32.9 57.15 32.9 57.15 21.1 67.1 21.1" fill="#323465" fill-rule="evenodd" stroke="none"/>
    <path d="M49.9 21.1 L51.75 21.1 51.75 32.9 49.9 32.9 49.9 25.3 45.95 31.2 44.45 31.2 40.5 25.3 40.5 32.9 38.65 32.9 38.65 21.1 40.5 21.1 44.95 27.9 45.65 27.9 49.9 21.1" fill="#323465" fill-rule="evenodd" stroke="none"/>
    <path d="M76.3 28.8 L73.7 32.8 70.95 32.8 74.85 26.8 71.3 21.3 74.0 21.3 76.35 25.0 78.6 21.3 81.3 21.3 77.7 26.85 81.65 32.8 78.85 32.8 76.3 28.8" fill="#323465" fill-rule="evenodd" stroke="none"/>
    <path d="M9.85 5.4 L9.85 8.65 3.65 14.75 3.65 11.6 9.85 5.4" fill="#323465" fill-rule="evenodd" stroke="none"/>
    <path d="M9.85 40.05 L3.65 33.8 3.65 30.65 9.85 36.8 9.85 40.05" fill="#323465" fill-rule="evenodd" stroke="none"/>
  </g>
</svg>
