<?xml version="1.0" encoding="UTF-8" standalone="no"?>
<svg xmlns:xlink="http://www.w3.org/1999/xlink" height="196.15px" width="309.0px" xmlns="http://www.w3.org/2000/svg">
  <g transform="matrix(1.0, 0.0, 0.0, 1.0, 0.0, 0.0)">
    <path d="M176.85 34.45 L156.2 61.75 215.45 61.75 210.15 34.45 269.45 34.45 249.4 76.2 250.9 72.9 217.55 72.9 216.05 66.1 153.0 66.1 147.5 72.9 110.2 72.9 128.55 34.45 176.85 34.45 M107.0 79.5 L247.85 79.5 231.4 114.0 90.5 114.0 107.0 79.5" fill="#fb3127" fill-rule="evenodd" stroke="none"/>
    <path d="M176.85 34.45 L128.55 34.45 110.2 72.9 110.0 72.9 107.0 79.5 39.75 79.5 77.8 0.0 210.15 0.0 193.7 34.45 176.85 34.45" fill="#0d5e48" fill-rule="evenodd" stroke="none"/>
    <path d="M229.3 157.55 Q227.95 158.3 224.75 158.85 L219.45 160.0 Q213.0 161.7 213.0 166.25 213.0 169.1 214.9 170.4 216.6 171.75 219.65 171.75 225.15 171.75 227.4 168.35 229.5 164.9 229.3 157.55 M170.05 146.75 Q167.55 142.6 162.65 142.6 158.85 142.6 156.2 145.4 153.2 148.65 153.2 155.45 153.2 162.25 155.25 165.5 157.55 169.45 162.65 169.45 167.55 169.45 170.05 164.9 172.1 161.15 172.1 155.45 172.1 150.15 170.05 146.75 M166.45 130.45 Q177.05 130.45 182.7 138.8 187.85 146.0 187.85 157.15 187.85 167.2 182.7 174.0 177.25 181.4 167.55 181.4 158.65 181.4 153.95 174.95 L153.75 174.95 153.75 196.15 137.85 196.15 137.85 131.95 153.0 131.95 153.0 137.45 153.2 137.45 Q157.7 130.45 166.45 130.45 M206.75 133.85 Q212.65 130.45 221.9 130.45 232.15 130.45 237.45 133.5 244.25 137.25 244.25 146.55 L244.25 167.75 Q244.25 171.9 244.65 174.0 245.0 177.4 246.15 180.05 L230.45 180.05 Q229.85 178.75 229.5 175.5 223.8 181.4 213.6 181.4 206.4 181.4 202.05 177.8 197.1 174.0 197.1 166.8 197.1 156.8 207.15 153.35 212.8 151.45 225.3 150.15 227.4 149.6 228.35 148.8 229.3 147.7 229.3 145.6 229.3 143.15 226.85 141.8 224.75 140.85 221.7 140.85 214.9 140.85 213.95 146.75 L199.2 146.75 Q199.55 138.05 206.75 133.85 M306.95 131.95 L289.3 150.15 309.0 180.05 290.05 180.05 278.35 160.75 274.15 164.55 274.15 180.05 258.45 180.05 258.45 113.8 274.15 113.8 274.15 147.9 288.55 131.95 306.95 131.95 M101.85 142.6 Q96.95 142.6 94.5 147.1 92.4 150.7 92.4 156.0 92.4 161.5 94.5 164.9 96.95 169.45 101.85 169.45 107.0 169.45 109.45 164.9 111.5 161.5 111.5 156.0 111.5 150.7 109.45 147.1 107.0 142.6 101.85 142.6 M83.7 137.85 Q90.9 130.45 101.85 130.45 113.05 130.45 120.25 137.85 127.25 145.25 127.25 156.0 127.25 167.0 120.25 174.2 113.05 181.4 101.85 181.4 90.9 181.4 83.7 174.2 76.7 167.0 76.7 156.0 76.7 145.25 83.7 137.85 M0.0 113.8 L18.0 113.8 41.3 163.0 41.45 163.0 64.75 113.8 82.75 113.8 50.95 180.05 31.8 180.05 0.0 113.8" fill="#231f20" fill-rule="evenodd" stroke="none"/>
  </g>
</svg>
