<?xml version="1.0" encoding="utf-8"?>
<!-- Generator: Adobe Illustrator 22.0.0, SVG Export Plug-In . SVG Version: 6.00 Build 0)  -->
<svg version="1.1" id="Layer_1" xmlns="http://www.w3.org/2000/svg" xmlns:xlink="http://www.w3.org/1999/xlink" x="0px" y="0px"
	 viewBox="0 0 392 400" style="enable-background:new 0 0 392 400;" xml:space="preserve">
<style type="text/css">
	.st0{fill:#FFFFFF;}
</style>
<title>Artboard 1</title>
<path class="st0" d="M334.6,58.6c38.3,38.9,57.4,86,57.4,141.2c0,55.3-19.1,102.5-57.4,141.6S250.1,400,196,400
	c-54.1,0-100.3-19.5-138.6-58.6S0,255.1,0,199.8C0,144.6,19.1,97.5,57.4,58.6C95.7,19.5,141.9,0,196,0S296.3,19.5,334.6,58.6
	 M294.2,80.2c-1.8-2.6-2.8-5.6-2.8-8.8c0-8.3,6.7-15,15-15c3.7,0,7.3,1.4,10,3.8l13.4,12.2c-16.7-18.4-37-33.2-59.6-43.4
	c-50-22.6-107.6-21.2-156.4,3.8c-18,9.6-33.4,23.3-45.2,40c-18,25.3-25.5,55.5-22.6,90.4c0.7,3,0.3,6.1-1,8.8c-1.3,2.9-3.4,5.3-6,7
	c-3.4,2.1-7.5,2.7-11.4,1.6c-3.9-1-7.2-3.5-9.2-7c-2-3.1-2.7-6.8-2-10.4l1-5.6c-3.1,13.9-4.6,28-4.6,42.2
	C12.6,232.4,21,264.6,37,293c15.3,27.4,37.3,50.4,64,66.8c16.9,10.2,36.1,16.1,55.8,17.2c28.3,1.5,55.7-7.1,82.4-25.8
	c4.8-4,11.5-4.6,17-1.6c7.2,3.9,9.9,12.9,6,20.1c-0.1,0.1-0.1,0.2-0.2,0.3c-1.7,3.2-4.6,5.6-8,6.8l-9.4,3.4
	c38-10.7,69.4-31.7,94.2-63.2c25.1-32,38.5-68.5,40.2-109.6c0.3-20.3-4-40.4-12.6-58.8c-12.9-27.2-34.6-48.2-65-63
	C298.5,84.6,296,82.7,294.2,80.2"/>
<path class="st0" d="M222.1,70.5l9.5,16.9l-119,210.8H93.6L222.1,70.5 M258.3,134.7l-9.5,17.1l-13.6-24.3L148,281.7h27.2l-9.1,16.5
	h-46.7L235.1,93.5L258.3,134.7 M195.3,57.5l-59.9,104.4l20.6,12.3L86,298.3H40.1l9.3-16.5h27.4L134.2,180l-20.6-12l81.7-144.7
	l22.9,40.6l-9.5,16.9L195.3,57.5 M300.7,243.8l-6.6,11.9l19.1,11.1l-17.7,31.5h-43.9l9.3-16.5h25.3l5.3-8.9l-19.1-11.3l28.8-51
	l22,38.7l-9.9,16.5L300.7,243.8 M297.8,204.5l-53.1,93.8h-19.1L288,187.4L297.8,204.5 M284.8,181.4l-9.8,16.9l-13.2-23.5L235.5,221
	l20,11.9l-8,14l-20-11.7l-26.3,46.5H228l-9.1,16.5H173l88.6-157.7L284.8,181.4 M302.3,298.3l24.1-43l24.3,43h-19.3l-5.1-9l-5.1,9
	H302.3"/>
</svg>
